<?xml version="1.0" encoding="utf-8"?>
<!-- Generator: Adobe Illustrator 27.0.0, SVG Export Plug-In . SVG Version: 6.00 Build 0)  -->
<svg version="1.1" id="Layer_1" xmlns="http://www.w3.org/2000/svg" xmlns:xlink="http://www.w3.org/1999/xlink" x="0px" y="0px"
	 viewBox="0 0 792 576" style="enable-background:new 0 0 792 576;" xml:space="preserve">
<style type="text/css">
	.st0{fill:#E03BD4;}
	.st1{fill:#F26B54;}
	.st2{fill:#E38FFF;}
	.st3{fill:#4AD1FF;}
	.st4{fill:#008080;}
	.st5{fill:#00BFBF;}
	.st6{fill:#E3B53D;}
	.st7{fill:#61A505;}
	.st8{fill:#800080;}
	.st9{fill:#73E6B3;}
	.st10{fill:#808080;}
	.st11{fill:#003000;}
	.st12{font-family:'ArialMT';}
	.st13{font-size:9.8947px;}
	.st14{fill:none;stroke:#D9B898;stroke-width:1.3979;stroke-linecap:round;stroke-miterlimit:3.4947;}
	.st15{fill:none;stroke:#808080;stroke-width:1.3979;stroke-linecap:round;stroke-miterlimit:3.4947;}
	.st16{fill:none;stroke:#009900;stroke-width:1.3979;stroke-linecap:round;stroke-miterlimit:3.4947;}
	.st17{fill:none;stroke:#D9B898;stroke-width:2.0236;stroke-linecap:round;stroke-miterlimit:5.059;}
	.st18{fill:none;stroke:#808080;stroke-width:2.0236;stroke-linecap:round;stroke-miterlimit:5.059;}
	.st19{fill:none;stroke:#000000;stroke-width:0.5059;stroke-linecap:round;stroke-miterlimit:5.059;}
	.st20{fill:none;stroke:#009900;stroke-width:2.0236;stroke-linecap:round;stroke-miterlimit:5.059;}
	.st21{font-size:5.4997px;}
	.st22{font-size:2.4749px;}
	.st23{font-family:'MyriadPro-Regular';}
	.st24{font-size:12px;}
</style>
<g id="wrapperHolder">
</g>
<g id="legendHolder">
</g>
<rect x="26.4" y="384" class="st0" width="17" height="17"/>
<rect x="26.4" y="362.6" class="st1" width="17" height="17"/>
<rect x="26.4" y="341.2" class="st2" width="17" height="17"/>
<rect x="26.4" y="405.3" class="st3" width="17" height="17"/>
<g>
	<rect x="26.4" y="426.7" class="st4" width="17" height="17"/>
	<rect x="34.9" y="426.7" class="st5" width="8.5" height="17"/>
</g>
<rect x="26.4" y="448.1" class="st6" width="17" height="17"/>
<rect x="26.4" y="469.4" class="st7" width="17" height="17"/>
<g>
	<rect x="26.4" y="490.8" class="st8" width="17" height="17"/>
	<rect x="34.8" y="490.8" class="st9" width="4.2" height="17"/>
	<rect x="30.5" y="490.8" class="st10" width="4.2" height="17"/>
	<rect x="39.1" y="490.8" class="st11" width="4.2" height="17"/>
</g>
<text transform="matrix(1 0 0 1 47.4678 353.7637)" class="st12 st13">Chytrids</text>
<text transform="matrix(1 0 0 1 47.4678 375.1758)" class="st12 st13">Dikarya</text>
<text transform="matrix(1 0 0 1 47.4678 397.0967)" class="st12 st13">Other Fungi</text>
<text transform="matrix(1 0 0 1 46.7959 417.5742)" class="st12 st13">Metazoa</text>
<text transform="matrix(1 0 0 1 47.4678 440.2793)" class="st12 st13">Other Opistokonts</text>
<text transform="matrix(1 0 0 1 47.4829 459.6123)" class="st12 st13">Amoebozoa</text>
<text transform="matrix(1 0 0 1 47.4678 481.333)" class="st12 st13">Plants</text>
<text transform="matrix(1 0 0 1 47.4678 504.9834)" class="st12 st13">Other Euks</text>
<g>
	<line class="st14" x1="15.7" y1="530.6" x2="54.3" y2="530.6"/>
	<text transform="matrix(1 0 0 1 59.9844 533.2246)" class="st12 st13">DRFs</text>
</g>
<g>
	<line class="st15" x1="15.7" y1="547.8" x2="54.3" y2="547.8"/>
	<text transform="matrix(1 0 0 1 59.9844 550.4277)" class="st12 st13">Non-DRFs</text>
</g>
<g>
	<line class="st16" x1="15.7" y1="565" x2="54.4" y2="565"/>
	<text transform="matrix(1 0 0 1 60.0854 567.6309)" class="st12 st13">Plant Formins</text>
</g>
<g id="mainHolder" transform="translate(866.14718,612.07174) rotate(-150) scale(0.5059,0.5059)">
	<g id="pruningHolder">
	</g>
	<g id="treeHolder">
		<g>
			<path class="st17" d="M1487,95.1l-29.7,5.2"/>
		</g>
		<g>
			<path class="st17" d="M1485.2,85.2l-29.6,5.8"/>
		</g>
		<g>
			<path class="st17" d="M1483.1,75.2l-59,12.7"/>
		</g>
		<g>
			<path class="st17" d="M1480.9,65.3l-29.4,6.9"/>
		</g>
		<g>
			<path class="st17" d="M1478.5,55.4l-29.3,7.4"/>
		</g>
		<g>
			<path class="st17" d="M1475.9,45.6l-58.2,16"/>
		</g>
		<g>
			<path class="st17" d="M1473.1,35.9l-29,8.5"/>
		</g>
		<g>
			<path class="st17" d="M1470.2,26.1l-28.8,9.1"/>
		</g>
		<g>
			<path class="st17" d="M1467,16.5l-143.1,48.1"/>
		</g>
		<g>
			<path class="st17" d="M1463.7,6.9L1435.3,17"/>
		</g>
		<g>
			<path class="st17" d="M1460.2-2.6L1432,8"/>
		</g>
		<g>
			<path class="st17" d="M1456.5-12.1l-28,11.2"/>
		</g>
		<g>
			<path class="st17" d="M1452.7-21.5l-27.8,11.7"/>
		</g>
		<g>
			<path class="st17" d="M1448.6-30.8L1421-18.6"/>
		</g>
		<g>
			<path class="st17" d="M1444.4-40.1l-27.4,12.8"/>
		</g>
		<g>
			<path class="st17" d="M1440.1-49.2l-54.3,26.5"/>
		</g>
		<g>
			<path class="st17" d="M1435.5-58.3l-26.9,13.8"/>
		</g>
		<g>
			<path class="st17" d="M1430.8-67.3L1404.2-53"/>
		</g>
		<g>
			<path class="st17" d="M1425.9-76.2l-26.3,14.8"/>
		</g>
		<g>
			<path class="st17" d="M1420.9-85l-26.1,15.3"/>
		</g>
		<g>
			<path class="st17" d="M1415.7-93.7L1389.9-78"/>
		</g>
		<g>
			<path class="st17" d="M1410.3-102.3l-25.5,16.2"/>
		</g>
		<g>
			<path class="st17" d="M1404.8-110.9l-50.3,33.4"/>
		</g>
		<g>
			<path class="st17" d="M1399.1-119.3l-74.6,51.5"/>
		</g>
		<g>
			<path class="st17" d="M1393.2-127.6l-24.5,17.6"/>
		</g>
		<g>
			<path class="st17" d="M1387.2-135.8l-24.2,18.1"/>
		</g>
		<g>
			<path class="st17" d="M1381.1-143.8l-47.7,37"/>
		</g>
		<g>
			<path class="st17" d="M1374.8-151.8l-23.5,19"/>
		</g>
		<g>
			<path class="st17" d="M1368.3-159.6l-23.1,19.4"/>
		</g>
		<g>
			<path class="st17" d="M1361.7-167.4l-22.8,19.8"/>
		</g>
		<g>
			<path class="st17" d="M1355-175l-22.4,20.2"/>
		</g>
		<g>
			<path class="st17" d="M1348.1-182.4l-66.1,62"/>
		</g>
		<g>
			<path class="st17" d="M1341.1-189.8l-21.6,21.1"/>
		</g>
		<g>
			<path class="st17" d="M1333.9-197l-21.2,21.5"/>
		</g>
		<g>
			<path class="st17" d="M1326.7-204l-41.7,43.7"/>
		</g>
		<g>
			<path class="st17" d="M1319.2-211l-20.4,22.3"/>
		</g>
		<g>
			<path class="st17" d="M1311.7-217.8l-20,22.6"/>
		</g>
		<g>
			<path class="st17" d="M1304-224.4l-39.1,46"/>
		</g>
		<g>
			<path class="st17" d="M1296.2-230.9l-57.4,70.1"/>
		</g>
		<g>
			<path class="st17" d="M1288.3-237.3l-18.7,23.7"/>
		</g>
		<g>
			<path class="st17" d="M1280.3-243.5l-18.3,24.1"/>
		</g>
		<g>
			<path class="st17" d="M1272.1-249.6l-17.8,24.4"/>
		</g>
		<g>
			<path class="st17" d="M1263.9-255.5l-17.3,24.7"/>
		</g>
		<g>
			<path class="st17" d="M1255.5-261.2l-33.8,50.1"/>
		</g>
		<g>
			<path class="st17" d="M1247-266.8l-16.4,25.4"/>
		</g>
		<g>
			<path class="st17" d="M1238.5-272.3l-15.9,25.7"/>
		</g>
		<g>
			<path class="st17" d="M1229.8-277.5l-30.9,51.9"/>
		</g>
		<g>
			<path class="st17" d="M1221-282.6l-15,26.2"/>
		</g>
		<g>
			<path class="st17" d="M1212.1-287.6l-14.5,26.5"/>
		</g>
		<g>
			<path class="st18" d="M1203.2-292.4l-14,26.8"/>
		</g>
		<g>
			<path class="st18" d="M1194.1-297l-13.5,27"/>
		</g>
		<g>
			<path class="st18" d="M1185-301.4l-25.9,54.6"/>
		</g>
		<g>
			<path class="st18" d="M1175.8-305.7l-12.4,27.5"/>
		</g>
		<g>
			<path class="st18" d="M1166.5-309.8l-11.9,27.7"/>
		</g>
		<g>
			<path class="st18" d="M1157.1-313.7l-11.4,28"/>
		</g>
		<g>
			<path class="st18" d="M1147.7-317.5l-10.9,28.2"/>
		</g>
		<g>
			<path class="st18" d="M1138.2-321l-20.7,56.7"/>
		</g>
		<g>
			<path class="st18" d="M1128.6-324.4l-9.8,28.6"/>
		</g>
		<g>
			<path class="st18" d="M1119-327.7l-9.3,28.7"/>
		</g>
		<g>
			<path class="st18" d="M1109.3-330.7l-17.5,57.8"/>
		</g>
		<g>
			<path class="st18" d="M1099.6-333.5l-8.2,29.1"/>
		</g>
		<g>
			<path class="st18" d="M1089.8-336.2l-7.7,29.2"/>
		</g>
		<g>
			<path class="st18" d="M1079.9-338.7l-28.5,117.4"/>
		</g>
		<g>
			<path class="st17" d="M1070-341l-6.6,29.5"/>
		</g>
		<g>
			<path class="st17" d="M1060.1-343.1l-6,29.6"/>
		</g>
		<g>
			<path class="st17" d="M1050.1-345l-5.5,29.7"/>
		</g>
		<g>
			<path class="st17" d="M1040.1-346.8l-4.9,29.8"/>
		</g>
		<g>
			<path class="st17" d="M1030.1-348.4l-4.4,29.9"/>
		</g>
		<g>
			<path class="st17" d="M1020-349.7l-3.8,30"/>
		</g>
		<g>
			<path class="st17" d="M1009.9-350.9L997-230.8"/>
		</g>
		<g>
			<path class="st17" d="M999.8-351.9l-2.7,30.1"/>
		</g>
		<g>
			<path class="st17" d="M989.7-352.7l-2.1,30.1"/>
		</g>
		<g>
			<path class="st17" d="M979.6-353.3l-3.1,60.3"/>
		</g>
		<g>
			<path class="st19" d="M969.4-353.7L956.7,38.6"/>
		</g>
		<g>
			<path class="st17" d="M959.3-354l-0.4,30.2"/>
		</g>
		<g>
			<path class="st17" d="M949.1-354l0.1,30.2"/>
		</g>
		<g>
			<path class="st17" d="M939-353.9l1.4,60.4"/>
		</g>
		<g>
			<path class="st17" d="M928.8-353.5l1.3,30.2"/>
		</g>
		<g>
			<path class="st17" d="M918.7-353l1.8,30.1"/>
		</g>
		<g>
			<path class="st17" d="M908.6-352.3l4.8,60.2"/>
		</g>
		<g>
			<path class="st17" d="M898.5-351.4l3,30.1"/>
		</g>
		<g>
			<path class="st17" d="M888.4-350.3l3.5,30"/>
		</g>
		<g>
			<path class="st17" d="M878.3-349l8.2,59.8"/>
		</g>
		<g>
			<path class="st17" d="M868.2-347.6l4.6,29.8"/>
		</g>
		<g>
			<path class="st17" d="M858.2-345.9l5.2,29.7"/>
		</g>
		<g>
			<path class="st17" d="M848.2-344.1l5.8,29.6"/>
		</g>
		<g>
			<path class="st17" d="M838.3-342.1l6.3,29.5"/>
		</g>
		<g>
			<path class="st17" d="M828.4-339.8l13.7,58.8"/>
		</g>
		<g>
			<path class="st17" d="M818.5-337.4l7.4,29.3"/>
		</g>
		<g>
			<path class="st17" d="M808.7-334.9l7.9,29.1"/>
		</g>
		<g>
			<path class="st17" d="M798.9-332.1l17,58"/>
		</g>
		<g>
			<path class="st17" d="M789.2-329.2l9,28.8"/>
		</g>
		<g>
			<path class="st17" d="M779.5-326l9.6,28.6"/>
		</g>
		<g>
			<path class="st17" d="M769.9-322.7l20.2,56.9"/>
		</g>
		<g>
			<path class="st17" d="M760.4-319.2L771-291"/>
		</g>
		<g>
			<path class="st17" d="M750.9-315.6l11.2,28.1"/>
		</g>
		<g>
			<path class="st17" d="M741.5-311.7l23.4,55.7"/>
		</g>
		<g>
			<path class="st17" d="M732.2-307.7l36.6,82.9"/>
		</g>
		<g>
			<path class="st17" d="M722.9-303.5l12.7,27.4"/>
		</g>
		<g>
			<path class="st17" d="M713.8-299.2L727-272"/>
		</g>
		<g>
			<path class="st17" d="M704.7-294.6l13.7,26.9"/>
		</g>
		<g>
			<path class="st17" d="M695.7-289.9l14.2,26.6"/>
		</g>
		<g>
			<path class="st17" d="M686.8-285.1l14.7,26.4"/>
		</g>
		<g>
			<path class="st17" d="M678-280l15.2,26.1"/>
		</g>
		<g>
			<path class="st17" d="M669.2-274.8l15.7,25.8"/>
		</g>
		<g>
			<path class="st17" d="M660.6-269.5l16.2,25.5"/>
		</g>
		<g>
			<path class="st17" d="M652.1-264l16.6,25.2"/>
		</g>
		<g>
			<path class="st17" d="M643.7-258.3l17.1,24.9"/>
		</g>
		<g>
			<path class="st17" d="M635.4-252.5l35.2,49.1"/>
		</g>
		<g>
			<path class="st17" d="M627.2-246.5l54.1,72.7"/>
		</g>
		<g>
			<path class="st17" d="M619.1-240.3l18.5,23.9"/>
		</g>
		<g>
			<path class="st17" d="M611.1-234l18.9,23.5"/>
		</g>
		<g>
			<path class="st17" d="M603.2-227.6l38.7,46.3"/>
		</g>
		<g>
			<path class="st17" d="M595.5-221l19.8,22.8"/>
		</g>
		<g>
			<path class="st17" d="M587.9-214.3l20.2,22.4"/>
		</g>
		<g>
			<path class="st17" d="M580.4-207.4l41.3,44.1"/>
		</g>
		<g>
			<path class="st17" d="M573.1-200.4l63.1,65"/>
		</g>
		<g>
			<path class="st17" d="M565.9-193.3l21.4,21.3"/>
		</g>
		<g>
			<path class="st17" d="M558.8-186l21.8,20.9"/>
		</g>
		<g>
			<path class="st17" d="M551.8-178.6L685.1-55.9"/>
		</g>
		<g>
			<path class="st17" d="M545-171.1l22.6,20"/>
		</g>
		<g>
			<path class="st17" d="M538.4-163.4l23,19.6"/>
		</g>
		<g>
			<path class="st17" d="M531.8-155.6l23.3,19.2"/>
		</g>
		<g>
			<path class="st17" d="M525.5-147.7l23.7,18.7"/>
		</g>
		<g>
			<path class="st19" d="M519.2-139.7l24,18.3"/>
		</g>
		<g>
			<path class="st19" d="M513.2-131.6l24.4,17.8"/>
		</g>
		<g>
			<path class="st19" d="M507.2-123.3l24.7,17.4"/>
		</g>
		<g>
			<path class="st19" d="M501.5-115l25,16.9"/>
		</g>
		<g>
			<path class="st19" d="M495.9-106.5L521.2-90"/>
		</g>
		<g>
			<path class="st19" d="M490.4-97.9L516-82"/>
		</g>
		<g>
			<path class="st19" d="M485.1-89.3L511-73.8"/>
		</g>
		<g>
			<path class="st19" d="M480-80.5l26.2,15"/>
		</g>
		<g>
			<path class="st19" d="M475-71.6l53,29"/>
		</g>
		<g>
			<path class="st19" d="M470.2-62.7l26.8,14"/>
		</g>
		<g>
			<path class="st19" d="M465.6-53.6l27,13.5"/>
		</g>
		<g>
			<path class="st19" d="M461.2-44.5l54.5,26"/>
		</g>
		<g>
			<path class="st19" d="M456.9-35.3l27.5,12.5"/>
		</g>
		<g>
			<path class="st19" d="M452.8-26l27.7,12"/>
		</g>
		<g>
			<path class="st19" d="M448.8-16.7l55.9,22.9"/>
		</g>
		<g>
			<path class="st19" d="M445.1-7.2l28.1,10.9"/>
		</g>
		<g>
			<path class="st19" d="M441.5,2.3l28.3,10.4"/>
		</g>
		<g>
			<path class="st19" d="M438.1,11.8l28.5,9.9"/>
		</g>
		<g>
			<path class="st19" d="M434.8,21.5l28.7,9.3"/>
		</g>
		<g>
			<path class="st19" d="M431.8,31.1l57.8,17.6"/>
		</g>
		<g>
			<path class="st19" d="M428.9,40.9l29,8.3"/>
		</g>
		<g>
			<path class="st19" d="M426.2,50.7l29.2,7.7"/>
		</g>
		<g>
			<path class="st19" d="M423.7,60.5l29.3,7.2"/>
		</g>
		<g>
			<path class="st19" d="M421.4,70.4l29.5,6.6"/>
		</g>
		<g>
			<path class="st19" d="M419.3,80.3l207.1,42.5"/>
		</g>
		<g>
			<path class="st19" d="M417.3,90.3l29.7,5.5"/>
		</g>
		<g>
			<path class="st19" d="M415.6,100.3l29.8,5"/>
		</g>
		<g>
			<path class="st19" d="M414,110.3l29.9,4.4"/>
		</g>
		<g>
			<path class="st19" d="M412.6,120.4l30,3.8"/>
		</g>
		<g>
			<path class="st19" d="M411.4,130.5l60,6.6"/>
		</g>
		<g>
			<path class="st19" d="M410.4,140.6l60.1,5.4"/>
		</g>
		<g>
			<path class="st19" d="M409.6,150.7l60.2,4.3"/>
		</g>
		<g>
			<path class="st19" d="M408.9,160.8l30.2,1.6"/>
		</g>
		<g>
			<path class="st19" d="M408.5,171l30.2,1"/>
		</g>
		<g>
			<path class="st19" d="M408.3,181.1l60.4,0.9"/>
		</g>
		<g>
			<path class="st19" d="M408.2,191.3l90.6-0.3"/>
		</g>
		<g>
			<path class="st19" d="M408.3,201.4l30.2-0.7"/>
		</g>
		<g>
			<path class="st19" d="M408.6,211.6l30.2-1.2"/>
		</g>
		<g>
			<path class="st19" d="M409.1,221.7l60.3-3.6"/>
		</g>
		<g>
			<path class="st19" d="M409.8,231.8l90.3-7.1"/>
		</g>
		<g>
			<path class="st19" d="M410.7,242l30.1-2.9"/>
		</g>
		<g>
			<path class="st19" d="M411.8,252.1l30-3.5"/>
		</g>
		<g>
			<path class="st19" d="M413.1,262.1L532.8,246"/>
		</g>
		<g>
			<path class="st19" d="M414.5,272.2l447.7-68.9"/>
		</g>
		<g>
			<path class="st17" d="M416.1,282.2l29.8-5.1"/>
		</g>
		<g>
			<path class="st17" d="M418,292.2l29.7-5.7"/>
		</g>
		<g>
			<path class="st17" d="M420,302.1l59.1-12.5"/>
		</g>
		<g>
			<path class="st17" d="M422.2,312.1l88.3-20.4"/>
		</g>
		<g>
			<path class="st17" d="M424.6,321.9l117.2-29.4"/>
		</g>
		<g>
			<path class="st17" d="M427.1,331.8l29.1-7.9"/>
		</g>
		<g>
			<path class="st17" d="M429.9,341.5l29-8.4"/>
		</g>
		<g>
			<path class="st17" d="M432.8,351.3l57.7-18"/>
		</g>
		<g>
			<path class="st17" d="M435.9,360.9l28.7-9.5"/>
		</g>
		<g>
			<path class="st17" d="M439.2,370.5l28.5-10.1"/>
		</g>
		<g>
			<path class="st17" d="M442.7,380.1l56.6-21.2"/>
		</g>
		<g>
			<path class="st17" d="M446.3,389.5l28.1-11.1"/>
		</g>
		<g>
			<path class="st17" d="M450.1,398.9l27.9-11.6"/>
		</g>
		<g>
			<path class="st17" d="M454.1,408.3l221.2-97.2"/>
		</g>
		<g>
			<path class="st17" d="M458.3,417.5l27.4-12.7"/>
		</g>
		<g>
			<path class="st17" d="M462.7,426.7l27.2-13.2"/>
		</g>
		<g>
			<path class="st17" d="M467.2,435.8l26.9-13.7"/>
		</g>
		<g>
			<path class="st17" d="M471.9,444.8l26.7-14.2"/>
		</g>
		<g>
			<path class="st17" d="M476.7,453.7l52.8-29.4"/>
		</g>
		<g>
			<path class="st17" d="M481.7,462.6l26.1-15.2"/>
		</g>
		<g>
			<path class="st17" d="M486.9,471.3l25.8-15.7"/>
		</g>
		<g>
			<path class="st17" d="M492.3,479.9l76.6-48.4"/>
		</g>
		<g>
			<path class="st18" d="M497.8,488.5l25.2-16.6"/>
		</g>
		<g>
			<path class="st18" d="M503.4,496.9l24.9-17.1"/>
		</g>
		<g>
			<path class="st18" d="M509.3,505.2l49.2-35.1"/>
		</g>
		<g>
			<path class="st18" d="M515.2,513.4l24.3-18"/>
		</g>
		<g>
			<path class="st18" d="M521.4,521.5l23.9-18.4"/>
		</g>
		<g>
			<path class="st18" d="M527.6,529.5l23.6-18.9"/>
		</g>
		<g>
			<path class="st18" d="M534.1,537.4l23.2-19.3"/>
		</g>
		<g>
			<path class="st18" d="M540.6,545.1l22.8-19.8"/>
		</g>
		<g>
			<path class="st18" d="M547.3,552.7l22.5-20.2"/>
		</g>
		<g>
			<path class="st18" d="M554.2,560.2l22.1-20.6"/>
		</g>
		<g>
			<path class="st18" d="M561.2,567.6l21.7-21"/>
		</g>
		<g>
			<path class="st18" d="M568.3,574.8l42.6-42.8"/>
		</g>
		<g>
			<path class="st18" d="M575.6,581.9l62.7-65.4"/>
		</g>
		<g>
			<path class="st18" d="M583,588.9l81.9-88.7"/>
		</g>
		<g>
			<path class="st18" d="M590.5,595.7l100.3-112.8"/>
		</g>
		<g>
			<path class="st18" d="M598.1,602.4l19.6-22.9"/>
		</g>
		<g>
			<path class="st18" d="M605.9,608.9l19.2-23.3"/>
		</g>
		<g>
			<path class="st19" d="M613.8,615.3l18.8-23.7"/>
		</g>
		<g>
			<path class="st19" d="M621.8,621.5l18.3-24"/>
		</g>
		<g>
			<path class="st19" d="M630,627.6l35.8-48.7"/>
		</g>
		<g>
			<path class="st19" d="M638.2,633.5l17.4-24.7"/>
		</g>
		<g>
			<path class="st19" d="M646.5,639.3l17-25"/>
		</g>
		<g>
			<path class="st19" d="M655,644.9l33-50.6"/>
		</g>
		<g>
			<path class="st19" d="M663.6,650.4l16-25.6"/>
		</g>
		<g>
			<path class="st19" d="M672.2,655.7l15.5-25.9"/>
		</g>
		<g>
			<path class="st19" d="M681,660.8l30.1-52.4"/>
		</g>
		<g>
			<path class="st19" d="M689.8,665.8l174.6-317.5"/>
		</g>
		<g>
			<path class="st20" d="M698.8,670.6l14.1-26.7"/>
		</g>
		<g>
			<path class="st20" d="M707.8,675.3l13.6-27"/>
		</g>
		<g>
			<path class="st20" d="M716.9,679.7l26.1-54.5"/>
		</g>
		<g>
			<path class="st20" d="M726.1,684l12.5-27.5"/>
		</g>
		<g>
			<path class="st20" d="M735.4,688.2l12-27.7"/>
		</g>
		<g>
			<path class="st20" d="M744.7,692.1l11.5-27.9"/>
		</g>
		<g>
			<path class="st20" d="M754.2,695.9l11-28.1"/>
		</g>
		<g>
			<path class="st20" d="M763.7,699.5l20.9-56.7"/>
		</g>
		<g>
			<path class="st20" d="M773.2,702.9l29.8-85.6"/>
		</g>
		<g>
			<path class="st20" d="M782.8,706.2l9.4-28.7"/>
		</g>
		<g>
			<path class="st20" d="M792.5,709.2l8.8-28.9"/>
		</g>
		<g>
			<path class="st20" d="M802.3,712.1l16.6-58.1"/>
		</g>
		<g>
			<path class="st20" d="M812,714.8l31-116.7"/>
		</g>
		<g>
			<path class="st20" d="M821.9,717.3l7.2-29.3"/>
		</g>
		<g>
			<path class="st20" d="M831.8,719.7l6.7-29.5"/>
		</g>
		<g>
			<path class="st20" d="M841.7,721.8l12.2-59.1"/>
		</g>
		<g>
			<path class="st20" d="M851.7,723.8l16.7-89"/>
		</g>
		<g>
			<path class="st20" d="M861.6,725.6l5-29.8"/>
		</g>
		<g>
			<path class="st20" d="M871.7,727.2l4.4-29.9"/>
		</g>
		<g>
			<path class="st20" d="M881.7,728.6l23.3-179.7"/>
		</g>
		<g>
			<path class="st19" d="M891.8,729.8l3.3-30"/>
		</g>
		<g>
			<path class="st19" d="M901.9,730.8l2.8-30.1"/>
		</g>
		<g>
			<path class="st19" d="M912,731.6l4.4-60.2"/>
		</g>
		<g>
			<path class="st19" d="M922.2,732.3l1.6-30.2"/>
		</g>
		<g>
			<path class="st19" d="M932.3,732.7l1.1-30.2"/>
		</g>
		<g>
			<path class="st19" d="M942.5,733l1-60.4"/>
		</g>
		<g>
			<path class="st19" d="M952.6,733.1l-0.2-120.8"/>
		</g>
		<g>
			<path class="st19" d="M962.8,733l-0.6-30.2"/>
		</g>
		<g>
			<path class="st19" d="M972.9,732.7l-1.2-30.2"/>
		</g>
		<g>
			<path class="st19" d="M983.1,732.2l-3.5-60.3"/>
		</g>
		<g>
			<path class="st19" d="M993.2,731.5l-13.8-180.7"/>
		</g>
		<g>
			<path class="st19" d="M1003.3,730.6l-2.9-30.1"/>
		</g>
		<g>
			<path class="st19" d="M1013.4,729.6l-3.4-30"/>
		</g>
		<g>
			<path class="st19" d="M1023.5,728.3l-4-29.9"/>
		</g>
		<g>
			<path class="st19" d="M1033.5,726.9L1029,697"/>
		</g>
		<g>
			<path class="st19" d="M1043.6,725.3l-40.8-238.1"/>
		</g>
		<g>
			<path class="st19" d="M1053.6,723.5l-45.2-237.3"/>
		</g>
		<g>
			<path class="st20" d="M1063.5,721.5l-6.2-29.6"/>
		</g>
		<g>
			<path class="st20" d="M1073.4,719.3l-6.8-29.4"/>
		</g>
		<g>
			<path class="st20" d="M1083.3,716.9l-7.3-29.3"/>
		</g>
		<g>
			<path class="st20" d="M1093.1,714.4l-7.9-29.2"/>
		</g>
		<g>
			<path class="st20" d="M1102.9,711.6l-25.2-87"/>
		</g>
		<g>
			<path class="st20" d="M1112.6,708.7l-8.9-28.8"/>
		</g>
		<g>
			<path class="st20" d="M1122.3,705.6l-9.5-28.7"/>
		</g>
		<g>
			<path class="st20" d="M1131.9,702.4l-10-28.5"/>
		</g>
		<g>
			<path class="st20" d="M1141.5,698.9l-10.5-28.3"/>
		</g>
		<g>
			<path class="st20" d="M1150.9,695.3l-22.1-56.2"/>
		</g>
		<g>
			<path class="st20" d="M1160.4,691.5l-11.6-27.9"/>
		</g>
		<g>
			<path class="st20" d="M1169.7,687.5l-12.1-27.7"/>
		</g>
		<g>
			<path class="st20" d="M1179,683.3l-12.6-27.4"/>
		</g>
		<g>
			<path class="st20" d="M1188.1,679l-13.1-27.2"/>
		</g>
		<g>
			<path class="st20" d="M1197.2,674.5l-13.6-26.9"/>
		</g>
		<g>
			<path class="st20" d="M1206.3,669.8l-14.1-26.7"/>
		</g>
		<g>
			<path class="st20" d="M1215.2,665l-29.3-52.8"/>
		</g>
		<g>
			<path class="st19" d="M1224,660l-15.1-26.1"/>
		</g>
		<g>
			<path class="st19" d="M1232.8,654.8l-15.6-25.8"/>
		</g>
		<g>
			<path class="st19" d="M1241.4,649.5l-32.2-51.1"/>
		</g>
		<g>
			<path class="st19" d="M1250,644l-16.6-25.2"/>
		</g>
		<g>
			<path class="st19" d="M1258.4,638.3l-17-24.9"/>
		</g>
		<g>
			<path class="st19" d="M1266.7,632.5l-52.5-73.8"/>
		</g>
		<g>
			<path class="st19" d="M1274.9,626.6l-18-24.3"/>
		</g>
		<g>
			<path class="st19" d="M1283,620.5l-18.4-23.9"/>
		</g>
		<g>
			<path class="st19" d="M1291,614.2l-37.7-47.2"/>
		</g>
		<g>
			<path class="st19" d="M1298.9,607.8l-57.9-69.7"/>
		</g>
		<g>
			<path class="st19" d="M1306.7,601.2l-78.9-91.5"/>
		</g>
		<g>
			<path class="st18" d="M1314.3,594.5l-20.1-22.5"/>
		</g>
		<g>
			<path class="st18" d="M1321.8,587.7l-20.6-22.1"/>
		</g>
		<g>
			<path class="st18" d="M1329.2,580.7l-41.9-43.5"/>
		</g>
		<g>
			<path class="st18" d="M1336.4,573.6l-21.4-21.3"/>
		</g>
		<g>
			<path class="st18" d="M1343.5,566.3l-21.8-20.9"/>
		</g>
		<g>
			<path class="st18" d="M1350.5,558.9l-22.2-20.5"/>
		</g>
		<g>
			<path class="st18" d="M1357.3,551.4l-22.5-20.1"/>
		</g>
		<g>
			<path class="st18" d="M1364,543.8l-22.9-19.7"/>
		</g>
		<g>
			<path class="st18" d="M1370.6,536l-23.3-19.2"/>
		</g>
		<g>
			<path class="st19" d="M1377,528.1l-23.6-18.8"/>
		</g>
		<g>
			<path class="st19" d="M1383.2,520.1l-24-18.4"/>
		</g>
		<g>
			<path class="st19" d="M1389.3,512l-48.6-35.8"/>
		</g>
		<g>
			<path class="st19" d="M1395.2,503.8l-73.9-52.4"/>
		</g>
		<g>
			<path class="st19" d="M1401,495.5l-99.8-68"/>
		</g>
		<g>
			<path class="st19" d="M1406.7,487l-101.1-66.1"/>
		</g>
		<g>
			<path class="st19" d="M1412.2,478.5l-25.6-16.1"/>
		</g>
		<g>
			<path class="st19" d="M1417.5,469.8l-25.9-15.6"/>
		</g>
		<g>
			<path class="st19" d="M1422.6,461.1l-52.3-30.2"/>
		</g>
		<g>
			<path class="st19" d="M1427.6,452.2l-26.4-14.6"/>
		</g>
		<g>
			<path class="st19" d="M1432.4,443.3l-26.7-14.1"/>
		</g>
		<g>
			<path class="st19" d="M1437.1,434.3l-53.9-27.2"/>
		</g>
		<g>
			<path class="st19" d="M1441.6,425.1l-27.2-13.1"/>
		</g>
		<g>
			<path class="st19" d="M1445.9,416l-27.5-12.6"/>
		</g>
		<g>
			<path class="st19" d="M1450,406.7l-55.4-24.1"/>
		</g>
		<g>
			<path class="st19" d="M1454,397.3l-83.7-34.6"/>
		</g>
		<g>
			<path class="st19" d="M1457.8,387.9l-28.1-11"/>
		</g>
		<g>
			<path class="st19" d="M1461.4,378.4l-28.3-10.5"/>
		</g>
		<g>
			<path class="st19" d="M1464.9,368.9l-57-19.9"/>
		</g>
		<g>
			<path class="st19" d="M1468.1,359.3l-28.7-9.4"/>
		</g>
		<g>
			<path class="st19" d="M1471.2,349.6l-28.9-8.9"/>
		</g>
		<g>
			<path class="st19" d="M1474.1,339.9l-58-16.7"/>
		</g>
		<g>
			<path class="st19" d="M1476.8,330.1l-29.2-7.8"/>
		</g>
		<g>
			<path class="st19" d="M1479.4,320.2L1450,313"/>
		</g>
		<g>
			<path class="st19" d="M1481.7,310.4l-58.9-13.4"/>
		</g>
		<g>
			<path class="st19" d="M1483.9,300.4l-29.6-6.2"/>
		</g>
		<g>
			<path class="st19" d="M1485.8,290.5l-29.7-5.6"/>
		</g>
		<g>
			<path class="st19" d="M1487.6,280.5l-476.4-80.9"/>
		</g>
		<g>
			<path class="st19" d="M1489.2,270.5l-477.8-71.9"/>
		</g>
		<g>
			<path class="st19" d="M1490.7,260.4l-479-63"/>
		</g>
		<g>
			<path class="st19" d="M1491.9,250.3l-480.1-54"/>
		</g>
		<g>
			<path class="st19" d="M1492.9,240.2l-481.1-45.1"/>
		</g>
		<g>
			<path class="st19" d="M1493.8,230.1L1012,194"/>
		</g>
		<g>
			<path class="st19" d="M1494.5,220L1012,192.9"/>
		</g>
		<g>
			<path class="st19" d="M1494.9,209.8l-482.8-18"/>
		</g>
		<g>
			<path class="st19" d="M1495.2,199.7l-483.1-9"/>
		</g>
		<g>
			<path class="st19" d="M1495.3,189.5l-483.2,0"/>
		</g>
		<g>
			<path class="st18" d="M1331.6,534.9l-67-60.9 M1328.3,538.4c2.2-2.3,4.3-4.7,6.5-7.1"/>
		</g>
		<g>
			<path class="st18" d="M1297.7,568.8l-20.4-22.3 M1294.2,572c2.4-2.1,4.7-4.3,7.1-6.5"/>
		</g>
		<g>
			<path class="st18" d="M1282.3,541.9l-20.7-22 M1277.4,546.5c3.3-3,6.6-6.1,9.9-9.3"/>
		</g>
		<g>
			<path class="st18" d="M1318.4,548.8l-43.1-42.3 M1315,552.2c2.3-2.3,4.5-4.5,6.7-6.8"/>
		</g>
		<g>
			<path class="st18" d="M1268.5,513.3l-21.1-21.6 M1261.7,519.9c4.6-4.3,9.2-8.8,13.6-13.3"/>
		</g>
		<g>
			<path class="st18" d="M1256.1,482.9l-21.7-21 M1247.4,491.7c5.9-5.8,11.6-11.7,17.1-17.8"/>
		</g>
		<g>
			<path class="st18" d="M1344.2,520.5l-92.3-77.9 M1341.1,524.1c2.1-2.4,4.1-4.9,6.2-7.3"/>
		</g>
		<g>
			<path class="st18" d="M1243.3,452.4L996.6,230 M1234.4,462c6-6.3,11.9-12.7,17.5-19.4"/>
		</g>
		<g>
			<path class="st19" d="M1005.2,700.1l-18.9-180.2 M1000.4,700.6c3.2-0.3,6.4-0.6,9.5-1"/>
		</g>
		<g>
			<path class="st19" d="M967,702.7l-0.9-30.2 M962.2,702.8c3.2-0.1,6.4-0.2,9.6-0.3"/>
		</g>
		<g>
			<path class="st19" d="M972.8,672.2l-4-90.5 M966.1,672.5c4.5-0.1,9-0.3,13.5-0.6"/>
		</g>
		<g>
			<path class="st19" d="M928.6,702.4l1.4-30.2 M923.8,702.1c3.2,0.2,6.4,0.3,9.6,0.4"/>
		</g>
		<g>
			<path class="st19" d="M936.7,672.5l0.9-30.2 M930,672.2c4.5,0.2,9,0.3,13.5,0.4"/>
		</g>
		<g>
			<path class="st19" d="M899.9,700.3l3-30 M895.1,699.8c3.2,0.4,6.4,0.7,9.5,1"/>
		</g>
		<g>
			<path class="st19" d="M909.7,670.9l2.6-30.1 M903,670.2c4.5,0.5,9,0.8,13.5,1.2"/>
		</g>
		<g>
			<path class="st19" d="M925,641.7l1.8-30.1 M912.3,640.8c8.4,0.7,16.9,1.2,25.3,1.5"/>
		</g>
		<g>
			<path class="st19" d="M939.6,612.1l0.9-30.2 M926.8,611.6c8.5,0.5,17.1,0.8,25.7,0.7"/>
		</g>
		<g>
			<path class="st19" d="M954.7,582.1l-0.2-30.2 M940.5,581.9c9.5,0.3,18.9,0.2,28.4-0.2"/>
		</g>
		<g>
			<path class="st19" d="M966.9,551.6l-1.3-30.2 M954.4,551.9c8.3-0.1,16.6-0.4,24.9-1"/>
		</g>
		<g>
			<path class="st19" d="M976,520.8l-2.2-30.1 M965.7,521.4c6.9-0.3,13.8-0.8,20.7-1.5"/>
		</g>
		<g>
			<path class="st19" d="M1024.3,697.7l-29.9-209.3 M1019.5,698.4c3.2-0.4,6.3-0.9,9.5-1.4"/>
		</g>
		<g>
			<path class="st19" d="M991.1,488.9l-31.5-239.5 M973.8,490.7c11.6-0.8,23.1-2.4,34.5-4.5"/>
		</g>
		<g>
			<path class="st19" d="M1440.9,345.3l-28.8-9.2 M1439.4,349.8c1-3,2-6.1,2.9-9.1"/>
		</g>
		<g>
			<path class="st19" d="M1414.1,329.6L1009.5,207 M1412.1,336.1c1.4-4.3,2.7-8.6,3.9-13"/>
		</g>
		<g>
			<path class="st19" d="M1416.4,407.7l-27.3-12.8 M1414.4,412.1c1.4-2.9,2.7-5.8,4.1-8.7"/>
		</g>
		<g>
			<path class="st19" d="M1391.9,388.7l-27.5-12.5 M1389.1,394.9c1.9-4.1,3.8-8.2,5.6-12.3"/>
		</g>
		<g>
			<path class="st19" d="M1367.4,369.5l-360.2-156 M1364.4,376.3c2-4.5,4-9,5.9-13.6"/>
		</g>
		<g>
			<path class="st20" d="M1080.6,686.4l-7.6-29.2 M1076,687.6c3.1-0.8,6.2-1.6,9.3-2.4"/>
		</g>
		<g>
			<path class="st20" d="M1062,690.9l-6.5-29.5 M1057.3,691.9c3.1-0.7,6.3-1.3,9.4-2.1"/>
		</g>
		<g>
			<path class="st20" d="M1064.3,659.4l-7-29.4 M1055.5,661.4c5.9-1.3,11.7-2.7,17.6-4.2"/>
		</g>
		<g>
			<path class="st20" d="M1067.5,627.5l-7.7-29.2 M1057.3,630c6.9-1.6,13.7-3.4,20.4-5.4"/>
		</g>
		<g>
			<path class="st20" d="M1108.3,678.4l-27.6-86.3 M1103.7,679.9c3.1-0.9,6.1-1.9,9.1-2.9"/>
		</g>
		<g>
			<path class="st20" d="M1070.3,595.3l-8.5-29 M1059.8,598.3c7-1.9,14-3.9,20.8-6.1"/>
		</g>
		<g>
			<path class="st20" d="M1126.4,672.3l-10.3-28.4 M1121.9,673.9c3-1.1,6-2.1,9-3.3"/>
		</g>
		<g>
			<path class="st20" d="M1122.5,641.5l-32-84.7 M1116.2,643.9c4.2-1.5,8.5-3.1,12.7-4.8"/>
		</g>
		<g>
			<path class="st20" d="M1076.2,561.8l-9.6-28.6 M1061.8,566.4c9.7-2.8,19.2-6,28.7-9.6"/>
		</g>
		<g>
			<path class="st20" d="M1187.9,645.4l-13.9-26.8 M1183.6,647.5c2.9-1.4,5.7-2.9,8.5-4.4"/>
		</g>
		<g>
			<path class="st20" d="M1180,615.4l-14.3-26.6 M1174,618.5c4-2.1,8-4.2,11.9-6.4"/>
		</g>
		<g>
			<path class="st20" d="M1170.7,653.9l-12.9-27.3 M1166.3,655.9c2.9-1.3,5.8-2.7,8.7-4.1"/>
		</g>
		<g>
			<path class="st20" d="M1153.2,661.7l-11.8-27.8 M1148.8,663.6c3-1.2,5.9-2.5,8.8-3.8"/>
		</g>
		<g>
			<path class="st20" d="M1149.6,630.3l-12.4-27.5 M1141.3,633.9c5.5-2.4,11-4.8,16.5-7.4"/>
		</g>
		<g>
			<path class="st20" d="M1151.6,596l-40-81.3 M1137.2,602.8c9.7-4.3,19.1-9,28.5-14"/>
		</g>
		<g>
			<path class="st20" d="M1089.5,524.7L974.7,245.4 M1066.7,533.2c15.4-5.1,30.4-11.3,45-18.5"/>
		</g>
		<g>
			<path class="st19" d="M1448.9,317.6l-29.2-7.5 M1447.7,322.3c0.8-3.1,1.6-6.2,2.4-9.3"/>
		</g>
		<g>
			<path class="st19" d="M1421.3,303.5l-410.8-99.7 M1419.6,310.1c1.1-4.4,2.2-8.8,3.2-13.2"/>
		</g>
		<g>
			<path class="st19" d="M1260.8,599.4l-18.2-24.1 M1257,602.3c2.6-1.9,5.1-3.8,7.7-5.8"/>
		</g>
		<g>
			<path class="st19" d="M1248,571.2l-18.5-23.9 M1242.6,575.3c3.6-2.7,7.2-5.5,10.7-8.3"/>
		</g>
		<g>
			<path class="st19" d="M1235.3,542.8l-18.9-23.5 M1229.5,547.3c3.9-3,7.7-6.1,11.5-9.3"/>
		</g>
		<g>
			<path class="st19" d="M1222.1,514.5l-19.3-23.2 M1216.4,519.2c3.8-3.1,7.6-6.2,11.4-9.5"/>
		</g>
		<g>
			<path class="st19" d="M1237.4,616.1l-33.6-50.2 M1233.4,618.7c2.7-1.8,5.3-3.5,8-5.3"/>
		</g>
		<g>
			<path class="st19" d="M1213,631.4l-15.4-26 M1208.9,633.8c2.8-1.6,5.5-3.2,8.3-4.9"/>
		</g>
		<g>
			<path class="st19" d="M1203.5,601.9l-15.7-25.8 M1197.7,605.4c3.9-2.3,7.7-4.6,11.6-7.1"/>
		</g>
		<g>
			<path class="st19" d="M1201.1,567.7l-33.3-50.4 M1187.7,576.2c9-5.5,17.9-11.3,26.5-17.5"/>
		</g>
		<g>
			<path class="st19" d="M1185.7,504.8L987.7,238 M1167.9,517.2c12.1-8,23.8-16.7,34.9-25.9"/>
		</g>
		<g>
			<path class="st19" d="M1356.3,505.6l-23.8-18.6 M1353.3,509.3c2-2.5,4-5,5.9-7.6"/>
		</g>
		<g>
			<path class="st19" d="M1336.6,481.6l-24.1-18.3 M1332.5,487c2.8-3.6,5.5-7.2,8.2-10.8"/>
		</g>
		<g>
			<path class="st19" d="M1317,457.4l-24.4-17.9 M1312.6,463.4c3-3.9,5.9-7.9,8.8-11.9"/>
		</g>
		<g>
			<path class="st19" d="M1299.2,430.3l-297.9-206.4 M1292.7,439.6c4.5-6.1,8.8-12.3,12.9-18.7"/>
		</g>
		<g>
			<path class="st19" d="M1431.4,372.4l-28.2-10.8 M1429.7,376.9c1.2-3,2.3-6,3.4-9"/>
		</g>
		<g>
			<path class="st19" d="M1405.6,355.3l-397.1-145.1 M1403.2,361.7c1.6-4.2,3.2-8.5,4.6-12.7"/>
		</g>
		<g>
			<path class="st20" d="M796.8,678.9l9.1-28.8 M792.2,677.5c3,1,6.1,2,9.1,2.9"/>
		</g>
		<g>
			<path class="st20" d="M812.4,652.2l17.4-57.8 M805.9,650.2c4.3,1.4,8.6,2.7,13,3.9"/>
		</g>
		<g>
			<path class="st20" d="M760.7,666l11.2-28 M756.2,664.2c3,1.2,5.9,2.4,8.9,3.6"/>
		</g>
		<g>
			<path class="st20" d="M778.2,640.5l10.8-28.2 M771.9,638c4.2,1.7,8.4,3.3,12.6,4.9"/>
		</g>
		<g>
			<path class="st20" d="M796,614.9l10.4-28.4 M789.1,612.3c4.6,1.8,9.2,3.5,13.9,5.1"/>
		</g>
		<g>
			<path class="st20" d="M743,658.5l24.6-55.2 M738.6,656.6c2.9,1.3,5.8,2.6,8.8,3.9"/>
		</g>
		<g>
			<path class="st20" d="M717.1,646.1l13.8-26.9 M712.8,643.9c2.8,1.5,5.7,2.9,8.5,4.4"/>
		</g>
		<g>
			<path class="st20" d="M736.9,622.3l13.4-27 M730.9,619.3c4,2.1,8.1,4.1,12.1,6"/>
		</g>
		<g>
			<path class="st20" d="M758.9,599.4l12.9-27.3 M750.3,595.3c5.7,2.8,11.4,5.5,17.2,8.1"/>
		</g>
		<g>
			<path class="st20" d="M806.8,586.7l10.4-28.4 M771.8,572.1c22.9,10.8,46.8,19.5,71.3,26"/>
		</g>
		<g>
			<path class="st20" d="M871.4,696.6l14.2-89.5 M866.7,695.8c3.2,0.5,6.3,1,9.5,1.5"/>
		</g>
		<g>
			<path class="st20" d="M833.8,689.1l6.9-29.4 M829.1,688c3.1,0.8,6.2,1.5,9.3,2.2"/>
		</g>
		<g>
			<path class="st20" d="M847.3,661.3l6.5-29.5 M840.7,659.8c4.4,1,8.8,2,13.2,2.9"/>
		</g>
		<g>
			<path class="st20" d="M861.1,633.3l6-29.6 M853.8,631.8c4.8,1.1,9.7,2.1,14.5,3"/>
		</g>
		<g>
			<path class="st20" d="M876.3,605.5l5.4-29.7 M867.1,603.7c6.1,1.3,12.3,2.4,18.5,3.3"/>
		</g>
		<g>
			<path class="st20" d="M849.1,568.4l7.9-29.1 M817.2,558.3c21,7.6,42.5,13.5,64.5,17.5"/>
		</g>
		<g>
			<path class="st20" d="M880.9,544.9l59.1-296.1 M857,539.3c15.8,4.3,31.9,7.5,48.1,9.6"/>
		</g>
		<g>
			<path class="st19" d="M1403.5,433.4l-26.6-14.3 M1401.2,437.6c1.5-2.8,3.1-5.6,4.6-8.4"/>
		</g>
		<g>
			<path class="st19" d="M1380.1,413.1l-26.8-14 M1376.9,419.1c2.1-4,4.2-8,6.3-12"/>
		</g>
		<g>
			<path class="st19" d="M1389.1,458.3l-25.7-15.8 M1386.6,462.4c1.7-2.7,3.4-5.4,5-8.2"/>
		</g>
		<g>
			<path class="st19" d="M1366.9,436.7l-25.9-15.4 M1363.4,442.5c2.4-3.8,4.7-7.7,6.9-11.6"/>
		</g>
		<g>
			<path class="st19" d="M1347.3,410.3L1004.5,219 M1340.9,421.3c4.3-7.3,8.5-14.7,12.4-22.2"/>
		</g>
		<g>
			<path class="st19" d="M683.6,627.3l15.8-25.8 M679.6,624.8c2.7,1.7,5.4,3.4,8.2,5"/>
		</g>
		<g>
			<path class="st19" d="M705.2,605.1l154.1-259.7 M699.4,601.6c3.8,2.4,7.7,4.7,11.6,6.9"/>
		</g>
		<g>
			<path class="st18" d="M542.4,499.3l48.2-36.4 M539.5,495.4c1.9,2.6,3.8,5.1,5.8,7.6"/>
		</g>
		<g>
			<path class="st18" d="M525.6,475.8l25.1-16.8 M523,471.9c1.8,2.7,3.5,5.3,5.3,8"/>
		</g>
		<g>
			<path class="st18" d="M554.5,464.6l24.8-17.2 M550.7,459c2.5,3.7,5.1,7.5,7.7,11.1"/>
		</g>
		<g>
			<path class="st18" d="M584.9,455.2l24.5-17.7 M579.4,447.4c3.6,5.2,7.3,10.4,11.2,15.4"/>
		</g>
		<g>
			<path class="st18" d="M566.6,529l22.7-20 M563.5,525.4c2.1,2.4,4.2,4.8,6.3,7.2"/>
		</g>
		<g>
			<path class="st18" d="M554.2,514.3l23.4-19.1 M551.2,510.6c2,2.5,4,5,6.1,7.4"/>
		</g>
		<g>
			<path class="st18" d="M583.4,502.2l46-39.1 M577.6,495.2c3.8,4.7,7.7,9.2,11.7,13.8"/>
		</g>
		<g>
			<path class="st18" d="M619.1,450.5l47.5-37.3 M609.3,437.5c6.4,8.8,13.1,17.3,20.1,25.6"/>
		</g>
		<g>
			<path class="st18" d="M579.6,543.1l21.9-20.8 M576.3,539.6c2.2,2.3,4.4,4.7,6.6,7"/>
		</g>
		<g>
			<path class="st18" d="M606.2,527.2l21.6-21.1 M601.5,522.3c3.1,3.3,6.3,6.5,9.5,9.7"/>
		</g>
		<g>
			<path class="st18" d="M633,511.3l21.3-21.5 M627.8,506.1c3.4,3.5,7,7,10.5,10.4"/>
		</g>
		<g>
			<path class="st18" d="M659.5,495.1l20.9-21.8 M654.2,489.9c3.5,3.5,7.1,6.9,10.7,10.2"/>
		</g>
		<g>
			<path class="st18" d="M685.6,478.1l20.5-22.2 M680.4,473.2c3.4,3.3,6.9,6.5,10.4,9.6"/>
		</g>
		<g>
			<path class="st18" d="M685.5,435.3l22.2-20.5 M666.6,413.2c12,15.3,25.2,29.5,39.4,42.7"/>
		</g>
		<g>
			<path class="st18" d="M621.5,582.5L738,443.8 M617.8,579.4c2.4,2.1,4.9,4.1,7.3,6.2"/>
		</g>
		<g>
			<path class="st18" d="M722.4,429.8l83.4-87.4 M707.7,414.9c9.5,10.3,19.6,20,30.3,29"/>
		</g>
		<g>
			<path class="st17" d="M487.8,409.2l218.3-103.4 M485.7,404.9c1.3,2.9,2.7,5.8,4.1,8.7"/>
		</g>
		<g>
			<path class="st17" d="M446.7,281.8l29.7-5.4 M445.9,277.1c0.5,3.1,1.1,6.3,1.7,9.4"/>
		</g>
		<g>
			<path class="st17" d="M477.7,283l29.6-5.8 M476.4,276.4c0.8,4.4,1.7,8.9,2.6,13.3"/>
		</g>
		<g>
			<path class="st17" d="M508.8,284.4l29.5-6.3 M507.3,277.2c1,4.8,2,9.7,3.1,14.5"/>
		</g>
		<g>
			<path class="st17" d="M540,285.3l29.4-6.8 M538.4,278.1c1,4.8,2.2,9.6,3.4,14.4"/>
		</g>
		<g>
			<path class="st17" d="M457.5,328.5l29.1-8.2 M456.3,323.9c0.8,3.1,1.7,6.2,2.6,9.2"/>
		</g>
		<g>
			<path class="st17" d="M488.5,326.8l86.9-25.7 M486.6,320.3c1.2,4.3,2.5,8.7,3.8,13"/>
		</g>
		<g>
			<path class="st17" d="M572.2,289.8l29.2-7.7 M569.4,278.5c1.8,7.6,3.8,15.1,6,22.6"/>
		</g>
		<g>
			<path class="st17" d="M466.1,355.9l28.6-9.8 M464.6,351.4c1,3,2,6.1,3.1,9.1"/>
		</g>
		<g>
			<path class="st17" d="M496.9,352.5l113.7-40.8 M494.7,346.2c1.5,4.3,3,8.5,4.6,12.7"/>
		</g>
		<g>
			<path class="st17" d="M605.7,297l28.8-9 M601.4,282.1c2.6,10,5.7,19.9,9.2,29.7"/>
		</g>
		<g>
			<path class="st17" d="M476.2,382.9L644,314.6 M474.4,378.4c1.2,3,2.4,5.9,3.6,8.9"/>
		</g>
		<g>
			<path class="st17" d="M639,301.5l28.4-10.2 M634.5,288.1c2.8,9,6,17.8,9.5,26.6"/>
		</g>
		<g>
			<path class="st17" d="M671.2,301.2l28.1-11.2 M667.4,291.3c2.4,6.7,5,13.3,7.9,19.8"/>
		</g>
		<g>
			<path class="st17" d="M702.6,298l27.7-12.1 M699.2,290.1c2.1,5.3,4.4,10.6,6.9,15.8"/>
		</g>
		<g>
			<path class="st17" d="M510.3,451.5l51.9-30.8 M507.8,447.4c1.6,2.8,3.2,5.5,4.9,8.2"/>
		</g>
		<g>
			<path class="st17" d="M496.3,426.4l26.8-13.9 M494.1,422.1c1.4,2.8,2.9,5.7,4.4,8.5"/>
		</g>
		<g>
			<path class="st17" d="M526.3,418.4l26.6-14.3 M523.1,412.5c2.1,4,4.2,8,6.4,11.9"/>
		</g>
		<g>
			<path class="st17" d="M560.6,418l182.5-106.6 M552.8,404.1c5,9.3,10.3,18.5,16,27.4"/>
		</g>
		<g>
			<path class="st17" d="M736.3,298.9l26.9-13.7 M730.2,286c3.8,8.7,8.1,17.2,12.9,25.4"/>
		</g>
		<g>
			<path class="st19" d="M782.1,315.6l24.2-18 M763.2,285.2c10.8,21.4,25.2,40.7,42.6,57.3"/>
		</g>
		<g>
			<path class="st19" d="M659.5,611.6l17.2-24.8 M655.6,608.9c2.6,1.8,5.2,3.7,7.9,5.5"/>
		</g>
		<g>
			<path class="st19" d="M682.3,590.6l16.8-25.1 M676.7,586.8c3.7,2.6,7.5,5.1,11.2,7.5"/>
		</g>
		<g>
			<path class="st19" d="M636.4,594.6l18.6-23.8 M632.6,591.6c2.5,2,5,4,7.6,5.9"/>
		</g>
		<g>
			<path class="st19" d="M660.3,574.9l18.2-24.1 M654.9,570.8c3.6,2.8,7.2,5.5,10.8,8.2"/>
		</g>
		<g>
			<path class="st19" d="M688.7,558.3L846.5,337 M678.5,550.8c6.7,5.1,13.6,10,20.7,14.7"/>
		</g>
		<g>
			<path class="st19" d="M832.7,326.1l79.4-91 M806.3,297.6c15.5,20.9,35.3,38.2,58.1,50.7"/>
		</g>
		<g>
			<path class="st19" d="M1455.3,289.6L1011,201.3 M1454.3,294.3c0.7-3.1,1.3-6.3,1.9-9.4"/>
		</g>
		<g>
			<path class="st19" d="M438.6,205.6l30.2-0.9 M438.5,200.8c0.1,3.2,0.2,6.4,0.3,9.6"/>
		</g>
		<g>
			<path class="st19" d="M469.1,211.4l30.2-1.4 M468.8,204.6c0.1,4.5,0.3,9,0.6,13.5"/>
		</g>
		<g>
			<path class="st19" d="M499.6,217.4l30.1-1.9 M499.2,210c0.2,4.9,0.5,9.9,0.9,14.8"/>
		</g>
		<g>
			<path class="st19" d="M441.3,243.8l90.1-9.6 M440.8,239c0.3,3.2,0.6,6.4,1,9.5"/>
		</g>
		<g>
			<path class="st19" d="M531,230.8l330.6-32.4 M529.8,215.5c0.6,10.2,1.6,20.3,3,30.5"/>
		</g>
		<g>
			<path class="st19" d="M438.9,167.2l30.2,1.3 M439.1,162.4c-0.2,3.2-0.3,6.4-0.4,9.6"/>
		</g>
		<g>
			<path class="st19" d="M468.8,175.3l30.2,0.9 M469,168.5c-0.2,4.5-0.3,9-0.4,13.5"/>
		</g>
		<g>
			<path class="st19" d="M498.8,183.6L529,184 M499,176.2c-0.1,4.9-0.2,9.9-0.2,14.8"/>
		</g>
		<g>
			<path class="st19" d="M443.2,119.5l29.9,4.1 M443.9,114.7c-0.5,3.2-0.9,6.3-1.3,9.5"/>
		</g>
		<g>
			<path class="st19" d="M446.2,100.5l29.7,5.2 M447,95.8c-0.6,3.1-1.1,6.3-1.7,9.4"/>
		</g>
		<g>
			<path class="st19" d="M472.2,130.3l59.9,7.4 M475.9,105.8c-2.9,16.3-4.9,32.7-6.1,49.2"/>
		</g>
		<g>
			<path class="st19" d="M530,160.8l331.4,22.6 M532.2,137.7c-1.9,15.4-2.9,30.8-3.2,46.3"/>
		</g>
		<g>
			<path class="st18" d="M1185-267.8l-13.7,26.9 M1189.2-265.6c-2.8-1.5-5.7-2.9-8.5-4.4"/>
		</g>
		<g>
			<path class="st18" d="M1165.2-243.9l-13.3,27.1 M1171.2-240.9c-4-2.1-8.1-4-12.1-6"/>
		</g>
		<g>
			<path class="st18" d="M1159-280.1l-24.4,55.3 M1163.3-278.2c-2.9-1.3-5.8-2.6-8.8-3.9"/>
		</g>
		<g>
			<path class="st18" d="M1143.3-221l-12.8,27.4 M1151.8-216.8c-5.7-2.8-11.4-5.5-17.3-8"/>
		</g>
		<g>
			<path class="st18" d="M1141.3-287.6l-11.1,28.1 M1145.7-285.8c-3-1.2-5.9-2.4-8.9-3.5"/>
		</g>
		<g>
			<path class="st18" d="M1123.8-262l-21.5,56.4 M1130.1-259.5c-4.2-1.7-8.4-3.3-12.7-4.8"/>
		</g>
		<g>
			<path class="st18" d="M1116.5-199.8l-11.8,27.8 M1130.5-193.6c-9.2-4.3-18.6-8.3-28.2-11.9"/>
		</g>
		<g>
			<path class="st18" d="M1086.7-305.8l-15.9,58.3 M1091.4-304.5c-3.1-0.9-6.2-1.7-9.3-2.5"/>
		</g>
		<g>
			<path class="st18" d="M1114.3-297.4l-9.6,28.6 M1118.8-295.9c-3-1-6.1-2.1-9.1-3"/>
		</g>
		<g>
			<path class="st18" d="M1098.3-270.9l-9.2,28.8 M1104.7-268.8c-4.3-1.4-8.6-2.8-12.9-4.1"/>
		</g>
		<g>
			<path class="st18" d="M1080-244.9l-8.6,29 M1089.1-242.1c-6-1.9-12.1-3.7-18.3-5.4"/>
		</g>
		<g>
			<path class="st18" d="M1061.5-218.7l-7.8,29.2 M1071.5-215.9c-6.6-2-13.3-3.8-20-5.4"/>
		</g>
		<g>
			<path class="st18" d="M1079.5-181.7l-78.6,228.4 M1104.7-172c-16.6-7-33.7-12.9-51.1-17.6"/>
		</g>
		<g>
			<path class="st17" d="M1316.1-172.1l-21.4,21.3 M1319.5-168.7c-2.2-2.3-4.5-4.6-6.8-6.8"/>
		</g>
		<g>
			<path class="st17" d="M1289.9-155.6l-42.3,43.1 M1294.7-150.8c-3.2-3.2-6.4-6.4-9.7-9.5"/>
		</g>
		<g>
			<path class="st17" d="M1335.8-151.1l-22.6,20 M1339-147.5c-2.1-2.4-4.2-4.8-6.4-7.2"/>
		</g>
		<g>
			<path class="st17" d="M1348.2-136.6l-23.3,19.2 M1351.3-132.8c-2-2.5-4-5-6.1-7.4"/>
		</g>
		<g>
			<path class="st17" d="M1319.1-124.3l-23,19.6 M1324.9-117.4c-3.8-4.6-7.7-9.2-11.7-13.7"/>
		</g>
		<g>
			<path class="st17" d="M1289.2-112.6l-22.5,20.1 M1296.2-104.7c-4.6-5.4-9.3-10.6-14.1-15.8"/>
		</g>
		<g>
			<path class="st17" d="M1257.3-102.6l-131,125.2 M1266.7-92.5c-6.1-6.9-12.5-13.5-19.1-20"/>
		</g>
		<g>
			<path class="st17" d="M1387.4-82.1l-25.6,16 M1389.9-78c-1.7-2.7-3.4-5.4-5.1-8.1"/>
		</g>
		<g>
			<path class="st17" d="M1358.1-71.8l-25.4,16.3 M1361.8-66.1c-2.4-3.8-4.8-7.6-7.3-11.4"/>
		</g>
		<g>
			<path class="st17" d="M1328.7-61.7L1203,22.1 M1332.7-55.5c-2.7-4.2-5.4-8.3-8.2-12.3"/>
		</g>
		<g>
			<path class="st17" d="M1397.2-65.6l-26.2,15 M1399.6-61.4c-1.6-2.8-3.2-5.6-4.8-8.3"/>
		</g>
		<g>
			<path class="st17" d="M1406.4-48.8l-26.7,14 M1408.6-44.5c-1.5-2.8-2.9-5.7-4.5-8.5"/>
		</g>
		<g>
			<path class="st17" d="M1375.4-42.7L1243,29.9 M1379.7-34.8c-2.8-5.3-5.7-10.6-8.7-15.8"/>
		</g>
		<g>
			<path class="st17" d="M1419.1-22.9l-27.5,12.5 M1421-18.6c-1.3-2.9-2.6-5.8-4-8.7"/>
		</g>
		<g>
			<path class="st17" d="M1388.7-16.6l-27.3,12.9 M1391.6-10.4c-1.9-4.1-3.8-8.2-5.8-12.2"/>
		</g>
		<g>
			<path class="st17" d="M1426.7-5.3l-27.9,11.5 M1428.5-0.9c-1.2-3-2.4-5.9-3.6-8.9"/>
		</g>
		<g>
			<path class="st17" d="M1433.6,12.5l-28.3,10.4 M1435.3,17c-1.1-3-2.2-6-3.3-9"/>
		</g>
		<g>
			<path class="st17" d="M1402.1,14.5l-28.1,10.9 M1405.3,22.9c-2.1-5.6-4.3-11.3-6.5-16.8"/>
		</g>
		<g>
			<path class="st17" d="M1367.9,10.8l-83.2,35.8 M1373.9,25.4c-3.8-9.9-8-19.6-12.5-29.1"/>
		</g>
		<g>
			<path class="st17" d="M1442.8,39.8l-86.7,26.4 M1444.2,44.4c-0.9-3.1-1.8-6.1-2.8-9.2"/>
		</g>
		<g>
			<path class="st17" d="M1450.4,67.5l-29.3,7.2 M1451.5,72.2c-0.7-3.1-1.5-6.2-2.3-9.3"/>
		</g>
		<g>
			<path class="st17" d="M1419.4,68.2l-29.2,7.6 M1421.1,74.7c-1.1-4.4-2.2-8.8-3.4-13.1"/>
		</g>
		<g>
			<path class="st17" d="M1456.5,95.7l-29.7,5.5 M1457.3,100.4c-0.6-3.1-1.1-6.3-1.8-9.4"/>
		</g>
		<g>
			<path class="st17" d="M1425.5,94.5l-29.6,5.9 M1426.8,101.2c-0.8-4.4-1.7-8.9-2.7-13.3"/>
		</g>
		<g>
			<path class="st17" d="M1393.2,88.1l-29.4,6.8 M1395.9,100.5c-1.7-8.3-3.6-16.5-5.7-24.7"/>
		</g>
		<g>
			<path class="st17" d="M1360.2,80.5l-29.2,7.8 M1363.8,94.8c-2.2-9.6-4.8-19.2-7.6-28.6"/>
		</g>
		<g>
			<path class="st17" d="M1327.6,76.4l-28.9,8.7 M1331,88.3c-2.1-8-4.5-15.9-7.1-23.7"/>
		</g>
		<g>
			<path class="st17" d="M1292.3,65.6l-28.4,10.3 M1298.7,85.1c-3.9-13.1-8.6-26-14-38.5"/>
		</g>
		<g>
			<path class="st17" d="M1254.3,52.5l-27.5,12.5 M1263.9,75.9c-5.8-15.9-12.7-31.3-20.9-46.1"/>
		</g>
		<g>
			<path class="st17" d="M1215.8,43l-26.4,14.7 M1226.8,64.9c-6.8-14.9-14.7-29.3-23.8-42.9"/>
		</g>
		<g>
			<path class="st17" d="M1365.9-113.8L1341.5-96 M1368.7-109.9c-1.9-2.6-3.8-5.2-5.7-7.7"/>
		</g>
		<g>
			<path class="st17" d="M1337.5-101.4L1168.7,25.9 M1341.5-96c-2.7-3.6-5.4-7.2-8.2-10.8"/>
		</g>
		<g>
			<path class="st17" d="M1179.6,41.4l-25.3,16.5 M1189.4,57.7c-6.1-11.1-13-21.7-20.7-31.8"/>
		</g>
		<g>
			<path class="st17" d="M1141.2,39.6l-23.7,18.7 M1154.3,57.9c-8.2-12.6-17.5-24.4-27.9-35.3"/>
		</g>
		<g>
			<path class="st17" d="M1265.8-216.5l-55.4,71.7 M1269.6-213.6c-2.5-2-5-3.9-7.6-5.9"/>
		</g>
		<g>
			<path class="st17" d="M1295.3-192l-20.2,22.4 M1298.8-188.7c-2.4-2.2-4.7-4.3-7.1-6.4"/>
		</g>
		<g>
			<path class="st17" d="M1270-174l-19.9,22.7 M1275.1-169.5c-3.4-3-6.7-6-10.2-8.9"/>
		</g>
		<g>
			<path class="st17" d="M1244.5-156.1l-19.5,23 M1250.1-151.3c-3.7-3.3-7.5-6.4-11.3-9.6"/>
		</g>
		<g>
			<path class="st17" d="M1217.8-139.1l-19,23.5 M1225-133.1c-4.8-4-9.6-8-14.6-11.8"/>
		</g>
		<g>
			<path class="st17" d="M1250.4-228l-17.6,24.6 M1254.3-225.2c-2.6-1.9-5.2-3.7-7.8-5.6"/>
		</g>
		<g>
			<path class="st17" d="M1227.3-207.3l-51.7,74.4 M1232.9-203.4c-3.7-2.6-7.4-5.2-11.1-7.7"/>
		</g>
		<g>
			<path class="st17" d="M1187.4-124.5L1078.6,20.5 M1198.8-115.6c-7.5-6.1-15.2-11.8-23.1-17.3"/>
		</g>
		<g>
			<path class="st17" d="M1099.3,38.1l-21.1,21.6 M1117.5,58.3c-11.3-14.2-24.3-27-38.9-37.9"/>
		</g>
		<g>
			<path class="st17" d="M1201.9-258.8l-29.4,52.7 M1206.1-256.4c-2.8-1.6-5.6-3.1-8.4-4.7"/>
		</g>
		<g>
			<path class="st17" d="M1226.6-244.1l-16.2,25.5 M1230.6-241.5c-2.7-1.7-5.4-3.4-8.1-5.1"/>
		</g>
		<g>
			<path class="st17" d="M1204.7-222.1l-15.8,25.7 M1210.4-218.6c-3.8-2.4-7.7-4.8-11.5-7.1"/>
		</g>
		<g>
			<path class="st17" d="M1180.7-201.3L1043.3,33.2 M1188.9-196.4c-5.4-3.3-10.9-6.5-16.4-9.6"/>
		</g>
		<g>
			<path class="st17" d="M1061.6,45.4l-18.3,24 M1078.2,59.8c-10.5-10.2-22.2-19.2-34.9-26.6"/>
		</g>
		<g>
			<path class="st17" d="M1039.9-316.2l-5.2,29.7 M1044.7-315.4c-3.1-0.6-6.3-1.1-9.4-1.6"/>
		</g>
		<g>
			<path class="st17" d="M1058.8-312.5l-6.3,29.5 M1063.5-311.5c-3.1-0.7-6.2-1.4-9.4-2"/>
		</g>
		<g>
			<path class="st17" d="M1043.6-284.8l-5.7,29.6 M1052.5-283c-5.9-1.3-11.8-2.4-17.7-3.4"/>
		</g>
		<g>
			<path class="st17" d="M1021-319.1l-8.1,59.8 M1025.7-318.5c-3.2-0.5-6.3-0.9-9.5-1.3"/>
		</g>
		<g>
			<path class="st17" d="M1025.4-257.4l-4.9,29.8 M1037.9-255.2c-8.3-1.6-16.7-3-25-4.1"/>
		</g>
		<g>
			<path class="st17" d="M1008.8-229.4l-4.1,29.9 M1020.5-227.6c-7.8-1.3-15.6-2.3-23.5-3.2"/>
		</g>
		<g>
			<path class="st17" d="M992.4-322.2l-2.4,30.1 M997.2-321.8c-3.2-0.3-6.4-0.5-9.6-0.8"/>
		</g>
		<g>
			<path class="st17" d="M983.3-292.6l-5.9,90.4 M990-292.1c-4.5-0.4-9-0.7-13.5-0.9"/>
		</g>
		<g>
			<path class="st17" d="M991-201.1L966.9,39.3 M1004.7-199.5c-9.1-1.2-18.2-2.2-27.4-2.8"/>
		</g>
		<g>
			<path class="st19" d="M1002.4,47.3l-10.1,28.5 M1043.3,69.4c-25-19-55.2-29.8-86.6-30.8"/>
		</g>
		<g>
			<path class="st17" d="M664.7-236.1l16.9,25 M668.7-238.8c-2.7,1.8-5.3,3.5-8,5.4"/>
		</g>
		<g>
			<path class="st17" d="M676-207.2l17.2,24.8 M681.6-211.1c-3.7,2.5-7.4,5.1-11.1,7.7"/>
		</g>
		<g>
			<path class="st17" d="M687.2-178.2l17.6,24.5 M693.3-182.4c-4.1,2.8-8.1,5.7-12,8.6"/>
		</g>
		<g>
			<path class="st17" d="M633.8-213.5l18.7,23.7 M637.6-216.4c-2.5,2-5,3.9-7.5,5.9"/>
		</g>
		<g>
			<path class="st17" d="M647.2-185.6l38.1,46.9 M652.5-189.8c-3.5,2.8-7,5.6-10.5,8.5"/>
		</g>
		<g>
			<path class="st17" d="M695-146.3l18.3,24 M704.9-153.7c-6.7,4.8-13.2,9.8-19.6,15"/>
		</g>
		<g>
			<path class="st17" d="M583.9-168.6l64.9,63.2 M587.3-172c-2.3,2.3-4.5,4.6-6.7,6.9"/>
		</g>
		<g>
			<path class="st17" d="M611.7-195.1l20,22.6 M615.3-198.2c-2.4,2.1-4.8,4.2-7.2,6.4"/>
		</g>
		<g>
			<path class="st17" d="M626.7-167.9l20.3,22.3 M631.7-172.4c-3.4,3-6.7,6-10,9.1"/>
		</g>
		<g>
			<path class="st17" d="M641.5-140.5l20.7,22 M647-145.6c-3.7,3.3-7.2,6.7-10.8,10.1"/>
		</g>
		<g>
			<path class="st17" d="M655.5-112l21.2,21.5 M662.2-118.5c-4.6,4.3-9,8.7-13.4,13.1"/>
		</g>
		<g>
			<path class="st17" d="M694.5-107l19.8,22.8 M713.3-122.3c-12.9,9.8-25.1,20.5-36.7,31.8"/>
		</g>
		<g>
			<path class="st17" d="M699.3-70.4l21,21.7 M714.3-84.2c-10.2,8.9-20,18.3-29.1,28.3"/>
		</g>
		<g>
			<path class="st17" d="M564.5-147.4L701.1-28.5 M567.6-151c-2.1,2.4-4.2,4.8-6.3,7.2"/>
		</g>
		<g>
			<path class="st17" d="M710.5-38.8l21.9,20.8 M720.3-48.8c-6.7,6.5-13.1,13.2-19.2,20.3"/>
		</g>
		<g>
			<path class="st17" d="M552.1-132.7L716.7,0 M555.2-136.4c-2,2.5-4,5-6,7.5"/>
		</g>
		<g>
			<path class="st17" d="M724.4-9.2l22.7,19.9 M732.5-18.1c-5.5,5.8-10.8,11.8-15.8,18"/>
		</g>
		<g>
			<path class="st17" d="M680.8-246.5l47.8,77 M684.9-249c-2.7,1.7-5.4,3.3-8.1,5.1"/>
		</g>
		<g>
			<path class="st17" d="M714.2-265.5l14,26.8 M718.4-267.7c-2.8,1.5-5.7,2.9-8.5,4.4"/>
		</g>
		<g>
			<path class="st17" d="M731.3-274.1l13,27.3 M735.7-276.1c-2.9,1.3-5.8,2.7-8.7,4.1"/>
		</g>
		<g>
			<path class="st17" d="M736.2-242.9l13.5,27 M744.3-246.8c-5.4,2.6-10.8,5.3-16.2,8.1"/>
		</g>
		<g>
			<path class="st17" d="M697.3-256.3l29.9,52.5 M701.5-258.7c-2.8,1.6-5.6,3.1-8.3,4.8"/>
		</g>
		<g>
			<path class="st17" d="M738.4-210l14.2,26.6 M749.6-215.8c-7.6,3.8-15,7.8-22.4,12"/>
		</g>
		<g>
			<path class="st17" d="M740.5-176.7L800.9-72 M752.6-183.4c-8.1,4.3-16.1,8.9-23.9,13.8"/>
		</g>
		<g>
			<path class="st17" d="M766.5-289.3l10.9,28.2 M771-291c-3,1.1-6,2.3-8.9,3.5"/>
		</g>
		<g>
			<path class="st17" d="M771.1-258.6l11.3,28 M777.4-261.1c-4.2,1.6-8.4,3.3-12.6,5.1"/>
		</g>
		<g>
			<path class="st17" d="M775.6-227.8l47,111.3 M782.4-230.6c-4.6,1.8-9.1,3.8-13.6,5.8"/>
		</g>
		<g>
			<path class="st17" d="M821.3-307l7.7,29.2 M825.9-308.2c-3.1,0.8-6.2,1.6-9.3,2.4"/>
		</g>
		<g>
			<path class="st17" d="M822.4-276l8.1,29.1 M828.9-277.8c-4.4,1.1-8.7,2.4-13,3.6"/>
		</g>
		<g>
			<path class="st17" d="M849.3-313.5l6,29.6 M854-314.4c-3.1,0.6-6.3,1.2-9.4,1.9"/>
		</g>
		<g>
			<path class="st17" d="M848.7-282.5l6.4,29.5 M855.3-283.9c-4.4,0.9-8.8,1.9-13.2,2.9"/>
		</g>
		<g>
			<path class="st17" d="M842.8-250.1l14.5,58.6 M855.1-253c-8.3,1.8-16.5,3.8-24.6,6.1"/>
		</g>
		<g>
			<path class="st17" d="M868.1-317l9.8,59.6 M872.9-317.7c-3.2,0.5-6.3,1-9.5,1.6"/>
		</g>
		<g>
			<path class="st17" d="M896.6-320.9l3.2,30 M901.4-321.4c-3.2,0.3-6.4,0.7-9.5,1"/>
		</g>
		<g>
			<path class="st17" d="M893.2-290.1l3.7,30 M899.9-290.8c-4.5,0.5-9,1-13.4,1.6"/>
		</g>
		<g>
			<path class="st17" d="M887.4-258.8l4.3,29.9 M896.8-260.1c-6.3,0.8-12.6,1.7-18.8,2.7"/>
		</g>
		<g>
			<path class="st17" d="M925.3-323.1l1.6,30.2 M930.1-323.4c-3.2,0.1-6.4,0.3-9.6,0.5"/>
		</g>
		<g>
			<path class="st17" d="M920.1-292.6l2,30.1 M926.9-293c-4.5,0.2-9,0.5-13.5,0.9"/>
		</g>
		<g>
			<path class="st17" d="M954.1-323.8l-0.1,30.2 M958.9-323.8c-3.2,0-6.4-0.1-9.6,0"/>
		</g>
		<g>
			<path class="st17" d="M947.2-293.6l0.3,30.2 M953.9-293.6c-4.5,0-9,0-13.5,0.1"/>
		</g>
		<g>
			<path class="st17" d="M934.8-263.1l1.1,30.2 M947.5-263.4c-8.5,0.1-16.9,0.4-25.4,1"/>
		</g>
		<g>
			<path class="st17" d="M913.7-231.5l2.7,30.1 M935.9-232.9c-14.8,0.6-29.6,1.9-44.2,4"/>
		</g>
		<g>
			<path class="st17" d="M886.7-197.6l5,29.8 M916.4-201.4c-19.9,1.8-39.7,5.1-59.2,9.9"/>
		</g>
		<g>
			<path class="st17" d="M793.7-298.9l9.3,28.7 M798.2-300.3c-3.1,1-6.1,1.9-9.1,3"/>
		</g>
		<g>
			<path class="st17" d="M796.5-268l38.8,114.4 M803-270.2c-4.3,1.4-8.6,2.8-12.8,4.3"/>
		</g>
		<g>
			<path class="st17" d="M863.2-161.9l7.4,29.3 M891.7-167.8c-19.1,3.2-38,8-56.4,14.2"/>
		</g>
		<g>
			<path class="st17" d="M846.3-125.5l9.6,28.6 M870.6-132.6c-16.4,4.1-32.5,9.5-48,16.1"/>
		</g>
		<g>
			<path class="st17" d="M827.7-85.8l12.4,27.5 M855.9-96.8c-19.1,6.4-37.5,14.7-55,24.8"/>
		</g>
		<g>
			<path class="st19" d="M789.9-28.8l89.9,121.3 M840.1-58.3c-35.6,16-67.3,39.5-93,68.9"/>
		</g>
		<g>
			<path class="st19" d="M933.9,70.1l4.5,29.9 M992.2,75.7c-37.9-13.5-80.1-7.2-112.4,16.8"/>
		</g>
		<g>
			<path class="st19" d="M451.9,72.3l176.4,41.4 M453.1,67.7c-0.8,3.1-1.5,6.2-2.2,9.3"/>
		</g>
		<g>
			<path class="st19" d="M465,26.2l28.6,9.6 M466.6,21.7c-1,3-2.1,6.1-3.1,9.1"/>
		</g>
		<g>
			<path class="st19" d="M491.6,42.3l57.5,18.4 M493.7,35.8c-1.4,4.3-2.8,8.6-4.1,12.9"/>
		</g>
		<g>
			<path class="st19" d="M471.5,8.2L528,29.5 M473.2,3.7c-1.2,3-2.3,6-3.4,9"/>
		</g>
		<g>
			<path class="st19" d="M482.4-18.4L510-6.2 M484.4-22.8c-1.3,2.9-2.6,5.8-3.9,8.8"/>
		</g>
		<g>
			<path class="st19" d="M507.3,0l27.8,11.8 M510-6.2c-1.8,4.1-3.6,8.3-5.3,12.5"/>
		</g>
		<g>
			<path class="st19" d="M531.4,20.6l28,11.3 M535.1,11.8c-2.5,5.8-4.9,11.7-7.1,17.7"/>
		</g>
		<g>
			<path class="st19" d="M554,46.2l28.4,10.2 M559.5,31.9c-3.8,9.5-7.3,19.1-10.4,28.8"/>
		</g>
		<g>
			<path class="st19" d="M456.7,53.8l116.5,31.9 M458,49.1c-0.9,3.1-1.7,6.2-2.5,9.2"/>
		</g>
		<g>
			<path class="st19" d="M577.5,71l28.8,9.1 M582.4,56.4c-3.5,9.6-6.6,19.4-9.3,29.3"/>
		</g>
		<g>
			<path class="st19" d="M494.8-44.4l26.9,13.8 M497-48.7c-1.5,2.8-2.9,5.7-4.4,8.5"/>
		</g>
		<g>
			<path class="st19" d="M518.6-24.6l27.1,13.4 M521.7-30.6c-2.1,4-4.1,8.1-6,12.1"/>
		</g>
		<g>
			<path class="st19" d="M508.6-69.6l26.1,15.2 M511-73.8c-1.6,2.7-3.3,5.5-4.8,8.3"/>
		</g>
		<g>
			<path class="st19" d="M531.3-48.5l26.3,14.9 M534.7-54.4c-2.3,3.9-4.5,7.8-6.7,11.8"/>
		</g>
		<g>
			<path class="st19" d="M551.5-22.5l26.7,14.1 M557.6-33.6c-4.2,7.4-8.1,14.8-11.9,22.4"/>
		</g>
		<g>
			<path class="st19" d="M529.2-102L554-84.8 M531.9-105.9c-1.8,2.6-3.7,5.2-5.4,7.9"/>
		</g>
		<g>
			<path class="st19" d="M540.4-117.6l24.2,18.1 M543.3-121.4c-1.9,2.5-3.8,5.1-5.7,7.7"/>
		</g>
		<g>
			<path class="st19" d="M559.2-92.2l24.5,17.6 M564.6-99.5c-3.6,4.8-7.1,9.7-10.5,14.7"/>
		</g>
		<g>
			<path class="st19" d="M518.6-86l51,32.4 M521.2-90c-1.7,2.7-3.5,5.4-5.1,8.1"/>
		</g>
		<g>
			<path class="st19" d="M576.5-64.2l25,16.9 M583.8-74.6c-4.9,6.9-9.7,13.9-14.2,21"/>
		</g>
		<g>
			<path class="st19" d="M589.3-28.1l51.8,31.1 M601.5-47.3c-8.5,12.5-16.3,25.5-23.4,38.9"/>
		</g>
		<g>
			<path class="st19" d="M621.4,40.5L649,52.9 M641.1,2.9c-14.6,24.3-26.3,50.2-34.8,77.1"/>
		</g>
		<g>
			<path class="st19" d="M635.7,87.2l229.8,74.4 M649,52.9c-10.1,22.4-17.7,45.8-22.6,69.9"/>
		</g>
		<g>
			<path class="st19" d="M878.8,135.8l24.3,17.9 M938.4,99.9c-23.8,3.6-45.3,16.5-59.6,35.9s-20.3,43.7-16.6,67.5"/>
		</g>
		<g>
			<path class="st19" d="M932.9,246.9l9.4-28.7 M903.1,153.7c-15.6,21.1-15.7,49.8-0.4,71.1c15.3,21.3,42.6,30.2,67.6,22.2
				s41.9-31.3,41.9-57.5"/>
		</g>
	</g>
	<g id="scaleHolder">
	</g>
	<g id="bootstrapHolder">
		<text transform="matrix(0.4963 1.9134 -1.9134 0.4963 1066.6545 668.2319)" class="st12 st21">83</text>
		<text transform="matrix(8.622184e-02 1.9748 -1.9748 8.622184e-02 961.4893 618.3118)" class="st12 st21">100</text>
		<text transform="matrix(-1.8018 -0.8129 0.8129 -1.8018 644.4026 41.0261)" class="st12 st21">93</text>
		<text transform="matrix(7.409924e-02 1.9753 -1.9753 7.409924e-02 926.0273 -256.7542)" class="st12 st21">100</text>
		<text transform="matrix(-1.7394 -0.9391 0.9391 -1.7394 1402.4355 422.6582)" class="st12 st21">100</text>
		<text transform="matrix(-0.9631 1.7262 -1.7262 -0.9631 1183.7446 -244.6917)" class="st12 st21">100</text>
		<text transform="matrix(0.6087 1.8806 -1.8806 0.6087 786.9774 -290.3842)" class="st12 st21">100</text>
		<text transform="matrix(0.9796 1.7168 -1.7168 0.9796 701.507 -230.9279)" class="st12 st21">99</text>
		<text transform="matrix(-1.3402 1.453 -1.453 -1.3402 695.3734 454.2461)" class="st12 st21">100</text>
		<text transform="matrix(-1.7201 -0.9739 0.9739 -1.7201 556.7473 -44.4211)" class="st12 st21">100</text>
		<text transform="matrix(-1.4354 -1.359 1.359 -1.4354 734.245 -28.7351)" class="st12 st21">100</text>
		<text transform="matrix(-1.8424 0.7161 -0.7161 -1.8424 1393.2294 8.3297)" class="st12 st21">100</text>
		<text transform="matrix(0.4756 1.9186 -1.9186 0.4756 839.1407 -227.4623)" class="st12 st21">100</text>
		<text transform="matrix(-1.8311 0.7445 -0.7445 -1.8311 565.1348 337.0339)" class="st12 st21">100</text>
		<text transform="matrix(-1.5552 1.22 -1.22 -1.5552 644.4778 419.1819)" class="st12 st21">100</text>
		<text transform="matrix(-1.5577 -1.2169 1.2169 -1.5577 1357.0668 494.789)" class="st12 st21">100</text>
		<text transform="matrix(0.7687 1.8211 -1.8211 0.7687 787.2903 -177.0034)" class="st12 st21">100</text>
		<text transform="matrix(-1.8826 -0.6024 0.6024 -1.8826 531.7003 45.7002)" class="st12 st21">100</text>
		<text transform="matrix(0.5541 1.8974 -1.8974 0.5541 1055.7264 577.5624)" class="st12 st21">99</text>
		<text transform="matrix(0.9092 1.7552 -1.7552 0.9092 1168.7992 628.0269)" class="st12 st21">100</text>
		<text transform="matrix(-1.627 -1.1225 1.1225 -1.627 554.1821 -95.653)" class="st12 st21">100</text>
		<text transform="matrix(-1.0583 1.6695 -1.6695 -1.0583 1215.7894 -243.7647)" class="st12 st21">100</text>
		<text transform="matrix(-1.7467 -0.9253 0.9253 -1.7467 577.0319 -19.1261)" class="st12 st21">100</text>
		<text transform="matrix(-1.4118 -1.3835 1.3835 -1.4118 1309.5979 527.638)" class="st12 st21">100</text>
		<text transform="matrix(-1.4829 1.307 -1.307 -1.4829 578.8185 506.26)" class="st12 st21">100</text>
		<text transform="matrix(0.2792 1.9569 -1.9569 0.2792 999.1636 585.4023)" class="st12 st21">100</text>
		<text transform="matrix(-1.8072 -0.8008 0.8008 -1.8072 508.132 -16.8517)" class="st12 st21">100</text>
		<text transform="matrix(-1.4679 -1.3238 1.3238 -1.4679 1130.4363 338.5948)" class="st12 st21">98</text>
		<text transform="matrix(-1.1275 1.6236 -1.6236 -1.1275 1199.3179 -182.6802)" class="st12 st21">100</text>
		<text transform="matrix(-1.6247 -1.1258 1.1258 -1.6247 1160.3967 323.199)" class="st12 st21">88</text>
		<text transform="matrix(-1.2718 1.5132 -1.5132 -1.2718 678.7043 500.4571)" class="st12 st21">100</text>
		<text transform="matrix(5.854625e-02 1.9758 -1.9758 5.854625e-02 957.2703 678.7753)" class="st12 st21">100</text>
		<text transform="matrix(-1.1279 -1.6233 1.6233 -1.1279 695.4786 -194.9995)" class="st12 st21">99</text>
		<text transform="matrix(-1.8917 -0.5732 0.5732 -1.8917 1220.2324 261.5162)" class="st12 st21">80</text>
		<text transform="matrix(0.1018 1.9741 -1.9741 0.1018 916.6771 -316.6653)" class="st12 st21">100</text>
		<text transform="matrix(-1.6774 1.0458 -1.0458 -1.6774 1377.5148 -86.4861)" class="st12 st21">100</text>
		<text transform="matrix(-0.3867 1.9385 -1.9385 -0.3867 902.781 389.1478)" class="st12 st21">81</text>
		<text transform="matrix(-1.6011 1.1592 -1.1592 -1.6011 599.1668 433.7382)" class="st12 st21">100</text>
		<text transform="matrix(-1.6407 1.1025 -1.1025 -1.6407 538.1948 456.614)" class="st12 st21">98</text>
		<text transform="matrix(0.6268 1.8747 -1.8747 0.6268 1060.0684 541.7652)" class="st12 st21">100</text>
		<text transform="matrix(-1.8492 -0.6983 0.6983 -1.8492 511.3936 13.6547)" class="st12 st21">100</text>
		<text transform="matrix(0.8095 1.8033 -1.8033 0.8095 1132.7666 614.7037)" class="st12 st21">88</text>
		<text transform="matrix(-0.7704 1.8204 -1.8204 -0.7704 1104.726 -194.9657)" class="st12 st21">99</text>
		<text transform="matrix(0.7389 1.8334 -1.8334 0.7389 766.2109 -246.8581)" class="st12 st21">97</text>
		<text transform="matrix(-1.9672 0.193 -0.193 -1.9672 701.4373 205.0718)" class="st12 st21">77</text>
		<text transform="matrix(-1.8835 -0.5997 0.5997 -1.8835 1437.8872 334.8972)" class="st12 st21">100</text>
		<text transform="matrix(0.2397 1.9621 -1.9621 0.2397 884.986 -282.9922)" class="st12 st21">100</text>
		<text transform="matrix(-1.9656 0.209 -0.209 -1.9656 494.3752 229.1529)" class="st12 st21">100</text>
		<text transform="matrix(0.5024 1.9118 -1.9118 0.5024 814.1194 -298.8586)" class="st12 st21">100</text>
		<text transform="matrix(-1.7153 0.9824 -0.9824 -1.7153 1387.5281 -70.392)" class="st12 st21">100</text>
		<text transform="matrix(-1.4787 1.3117 -1.3117 -1.4787 1325.3234 -153.8424)" class="st12 st21">100</text>
		<text transform="matrix(-0.2666 1.9586 -1.9586 -0.2666 998.6679 -221.6127)" class="st12 st21">98</text>
		<text transform="matrix(-1.7994 0.8181 -0.8181 -1.7994 1409.8719 -28.6131)" class="st12 st21">100</text>
		<text transform="matrix(-1.3853 -1.41 1.41 -1.3853 678.7963 -101.0858)" class="st12 st21">100</text>
		<text transform="matrix(-1.9765 -2.597915e-02 2.597915e-02 -1.9765 520.0873 174.888)" class="st12 st21">80</text>
		<text transform="matrix(-1.1924 1.5765 -1.5765 -1.1924 665.8853 552.6086)" class="st12 st21">99</text>
		<text transform="matrix(-1.9063 -0.5228 0.5228 -1.9063 523.113 62.6782)" class="st12 st21">94</text>
		<text transform="matrix(-1.8139 -0.7855 0.7855 -1.8139 1199.1797 286.9019)" class="st12 st21">100</text>
		<text transform="matrix(0.4245 1.9306 -1.9306 0.4245 1048.0342 669.2362)" class="st12 st21">100</text>
		<text transform="matrix(-1.5946 1.1681 -1.1681 -1.5946 1355.7218 -117.5017)" class="st12 st21">100</text>
		<text transform="matrix(-1.5764 1.1926 -1.1926 -1.5764 568.2546 468.4211)" class="st12 st21">100</text>
		<text transform="matrix(0.635 1.8719 -1.8719 0.635 804.5274 -216.5339)" class="st12 st21">100</text>
		<text transform="matrix(-1.8287 0.7503 -0.7503 -1.8287 1417.6982 -11.348)" class="st12 st21">100</text>
		<text transform="matrix(0.4605 1.9223 -1.9223 0.4605 1050.6543 640.9278)" class="st12 st21">83</text>
		<text transform="matrix(-1.9141 -0.4932 0.4932 -1.9141 1445.2708 307.4422)" class="st12 st21">100</text>
		<text transform="matrix(-1.8006 0.8155 -0.8155 -1.8006 1245.1395 46.8054)" class="st12 st21">100</text>
		<text transform="matrix(-1.7407 0.9365 -0.9365 -1.7407 540.6243 400.5276)" class="st12 st21">99</text>
		<text transform="matrix(-1.3648 1.4299 -1.4299 -1.3648 763.8669 373.3741)" class="st12 st21">100</text>
		<text transform="matrix(-1.584 -1.1825 1.1825 -1.584 565.1111 -110.3042)" class="st12 st21">100</text>
		<text transform="matrix(-0.8732 1.7734 -1.7734 -0.8732 1154.4768 -242.4835)" class="st12 st21">100</text>
		<text transform="matrix(-0.8037 1.8059 -1.8059 -0.8037 750.7919 619.0232)" class="st12 st21">100</text>
		<text transform="matrix(-0.1168 1.9732 -1.9732 -0.1168 917.2816 620.0679)" class="st12 st21">94</text>
		<text transform="matrix(-1.9393 0.3824 -0.3824 -1.9393 496.7204 270.1099)" class="st12 st21">93</text>
		<text transform="matrix(-1.7284 0.959 -0.959 -1.7284 1206.172 38.105)" class="st12 st21">100</text>
		<text transform="matrix(-1.3537 -1.4404 1.4404 -1.3537 664.6254 -129.0776)" class="st12 st21">100</text>
		<text transform="matrix(-1.8575 0.6761 -0.6761 -1.8575 1283.5312 59.2207)" class="st12 st21">100</text>
		<text transform="matrix(-0.5597 1.8958 -1.8958 -0.5597 1068.8408 -238.7529)" class="st12 st21">81</text>
		<text transform="matrix(-0.3527 1.945 -1.945 -0.3527 871.8099 580.137)" class="st12 st21">100</text>
		<text transform="matrix(-0.3957 1.9367 -1.9367 -0.3957 857.1173 607.8542)" class="st12 st21">100</text>
		<text transform="matrix(-1.7524 -0.9146 0.9146 -1.7524 1376.2054 400.9498)" class="st12 st21">99</text>
		<text transform="matrix(-1.9245 -0.4512 0.4512 -1.9245 551.024 86.3625)" class="st12 st21">100</text>
		<text transform="matrix(-0.4273 1.9299 -1.9299 -0.4273 843.7676 635.735)" class="st12 st21">100</text>
		<text transform="matrix(0.9877 1.7122 -1.7122 0.9877 758.3829 -127.7393)" class="st12 st21">100</text>
		<text transform="matrix(-1.4625 -1.3298 1.3298 -1.4625 1310.8043 503.8774)" class="st12 st21">100</text>
		<text transform="matrix(-1.2955 -1.493 1.493 -1.2955 717.0792 -94.6031)" class="st12 st21">100</text>
		<text transform="matrix(-1.5781 1.1903 -1.1903 -1.5781 1252.532 -48.5752)" class="st12 st21">99</text>
		<text transform="matrix(-1.5865 1.1791 -1.1791 -1.5865 796.1377 294.0094)" class="st12 st21">100</text>
		<text transform="matrix(-0.8789 1.7705 -1.7705 -0.8789 739.6382 596.6776)" class="st12 st21">100</text>
		<text transform="matrix(-1.0323 1.6857 -1.6857 -1.0323 688.618 602.0267)" class="st12 st21">100</text>
		<text transform="matrix(-0.704 1.8471 -1.8471 -0.704 1107.9183 -245.4025)" class="st12 st21">100</text>
		<text transform="matrix(-0.4121 1.9332 -1.9332 -0.4121 1048.7496 -308.5202)" class="st12 st21">100</text>
		<text transform="matrix(-1.7865 0.8459 -0.8459 -1.7865 598.5648 346.8325)" class="st12 st21">99</text>
		<text transform="matrix(-1.2243 -1.5518 1.5518 -1.2243 655.7833 -200.0788)" class="st12 st21">100</text>
		<text transform="matrix(-1.5746 -1.1949 1.1949 -1.5746 1334.8409 468.9966)" class="st12 st21">99</text>
		<text transform="matrix(0.2059 1.9659 -1.9659 0.2059 985.9178 601.9142)" class="st12 st21">100</text>
		<text transform="matrix(0.6027 1.8826 -1.8826 0.6027 1083.1517 629.4064)" class="st12 st21">100</text>
		<text transform="matrix(-1.9029 0.535 -0.535 -1.9029 478.3796 313.3011)" class="st12 st21">100</text>
		<text transform="matrix(-0.1979 1.9667 -1.9667 -0.1979 970.6384 -87.7951)" class="st12 st21">90</text>
		<text transform="matrix(-1.9133 0.4966 -0.4966 -1.9133 1408.3975 61.7514)" class="st12 st21">90</text>
		<text transform="matrix(-1.9758 -5.828165e-02 5.828165e-02 -1.9758 490.197 166.9451)" class="st12 st21">84</text>
		<text transform="matrix(-8.967301e-03 1.9767 -1.9767 -8.967301e-03 945.0858 -317.8344)" class="st12 st21">100</text>
		<text transform="matrix(-1.9721 -0.1343 0.1343 -1.9721 702.3002 163.5484)" class="st12 st21">94</text>
		<text transform="matrix(0.8117 1.8023 -1.8023 0.8117 823.2838 -73.8737)" class="st12 st21">99</text>
		<text transform="matrix(0.6986 1.8491 -1.8491 0.6986 1094.8938 593.8279)" class="st12 st21">100</text>
		<text transform="matrix(-1.6449 1.0962 -1.0962 -1.6449 1268.422 -32.2987)" class="st12 st21">100</text>
		<text transform="matrix(-0.5994 1.8836 -1.8836 -0.5994 1087.8916 -267.8535)" class="st12 st21">100</text>
		<text transform="matrix(-1.5307 1.2507 -1.2507 -1.5307 567.2539 492.1095)" class="st12 st21">100</text>
		<text transform="matrix(-1.7069 0.9969 -0.9969 -1.7069 652.5662 353.8781)" class="st12 st21">92</text>
		<text transform="matrix(-0.5131 1.9089 -1.9089 -0.5131 1050.4709 -212.3325)" class="st12 st21">82</text>
		<text transform="matrix(-1.9748 -8.595736e-02 8.595736e-02 -1.9748 460.3874 159.1679)" class="st12 st21">80</text>
		<text transform="matrix(-0.7979 1.8085 -1.8085 -0.7979 1142.2349 -264.4361)" class="st12 st21">100</text>
		<text transform="matrix(-1.246 -1.5345 1.5345 -1.246 678.9037 -160.7296)" class="st12 st21">100</text>
		<text transform="matrix(-1.4524 1.3408 -1.3408 -1.4524 694.9424 414.4071)" class="st12 st21">99</text>
		<text transform="matrix(-1.9729 0.1216 -0.1216 -1.9729 520.1957 207.1537)" class="st12 st21">90</text>
		<text transform="matrix(-1.6251 1.1253 -1.1253 -1.6251 569.2877 443.4663)" class="st12 st21">100</text>
		<text transform="matrix(-1.7892 -0.8402 0.8402 -1.7892 1412.0465 395.761)" class="st12 st21">78</text>
		<text transform="matrix(-1.7878 0.8433 -0.8433 -1.7878 1379.4578 -22.1269)" class="st12 st21">100</text>
		<text transform="matrix(-1.7063 -0.9979 0.9979 -1.7063 534 -65.176)" class="st12 st21">100</text>
		<text transform="matrix(-0.3094 1.9523 -1.9523 -0.3094 871.0401 641.4637)" class="st12 st21">100</text>
		<text transform="matrix(0.1294 1.9724 -1.9724 0.1294 911.5593 -285.9901)" class="st12 st21">100</text>
		<text transform="matrix(-1.302 1.4873 -1.4873 -1.302 1259.2802 -175.3812)" class="st12 st21">100</text>
		<text transform="matrix(-0.5967 1.8845 -1.8845 -0.5967 795.537 653.201)" class="st12 st21">100</text>
		<text transform="matrix(-0.3214 1.9504 -1.9504 -0.3214 1015.0779 -249.9319)" class="st12 st21">99</text>
		<text transform="matrix(-1.2643 -1.5195 1.5195 -1.2643 1223.25 501.8246)" class="st12 st21">81</text>
		<text transform="matrix(-0.6258 1.875 -1.875 -0.6258 1103.8486 -294.5447)" class="st12 st21">100</text>
		<text transform="matrix(0.2577 1.9598 -1.9598 0.2577 965.6906 364.3467)" class="st12 st21">84</text>
		<text transform="matrix(-1.1981 1.5722 -1.5722 -1.1981 1048.9506 47.1886)" class="st12 st21">97</text>
		<text transform="matrix(-1.684 -1.035 1.035 -1.684 1388.6652 447.5337)" class="st12 st21">100</text>
		<text transform="matrix(0.1777 1.9687 -1.9687 0.1777 905.6177 -221.7027)" class="st12 st21">97</text>
		<text transform="matrix(1.872680e-02 1.9766 -1.9766 1.872680e-02 938.285 -284.4736)" class="st12 st21">99</text>
		<text transform="matrix(-1.6984 -1.0113 1.0113 -1.6984 1363.6975 424.3939)" class="st12 st21">96</text>
		<text transform="matrix(-1.0086 1.7 -1.7 -1.0086 777.6276 465.4359)" class="st12 st21">77</text>
		<text transform="matrix(-1.6626 1.0692 -1.0692 -1.6626 1348.2097 -76.0899)" class="st12 st21">100</text>
		<text transform="matrix(-1.5112 -1.2742 1.2742 -1.5112 1310.7532 480.5138)" class="st12 st21">100</text>
		<text transform="matrix(1.470477e-02 1.9766 -1.9766 1.470477e-02 945.5187 557.99)" class="st12 st21">100</text>
		<text transform="matrix(0.2914 1.9551 -1.9551 0.2914 926.406 80.3373)" class="st12 st21">91</text>
		<text transform="matrix(-0.8415 1.7886 -1.7886 -0.8415 761.0917 573.7174)" class="st12 st21">100</text>
		<text transform="matrix(-1.2144 1.5597 -1.5597 -1.2144 644.1307 570.0064)" class="st12 st21">100</text>
		<text transform="matrix(0.6276 1.8744 -1.8744 0.6276 839.6828 -116.8881)" class="st12 st21">100</text>
		<text transform="matrix(-0.9036 1.7581 -1.7581 -0.9036 720.1481 620.5208)" class="st12 st21">100</text>
		<text transform="matrix(-1.8952 0.5616 -0.5616 -1.8952 538.0743 302.7615)" class="st12 st21">100</text>
		<text transform="matrix(0.3946 1.9369 -1.9369 0.3946 841.6957 -305.7992)" class="st12 st21">100</text>
		<text transform="matrix(-1.6999 1.0088 -1.0088 -1.6999 536.8705 425.3227)" class="st12 st21">98</text>
		<text transform="matrix(-1.9201 0.4697 -0.4697 -1.9201 1442.4164 60.2665)" class="st12 st21">100</text>
		<text transform="matrix(-8.911943e-02 1.9747 -1.9747 -8.911943e-02 920.7312 677.8224)" class="st12 st21">100</text>
		<text transform="matrix(-1.8555 0.6815 -0.6815 -1.8555 1424.8763 6.1977)" class="st12 st21">100</text>
		<text transform="matrix(-1.9253 0.4478 -0.4478 -1.9253 561.4793 271.103)" class="st12 st21">100</text>
		<text transform="matrix(-1.8844 -0.5969 0.5969 -1.8844 603.2579 69.728)" class="st12 st21">100</text>
		<text transform="matrix(-1.2993 1.4897 -1.4897 -1.2993 869.5678 270.1111)" class="st12 st21">84</text>
		<text transform="matrix(-0.1289 1.9725 -1.9725 -0.1289 971.7457 -254.0212)" class="st12 st21">99</text>
		<text transform="matrix(0.5292 1.9045 -1.9045 0.5292 815.3765 -267.7842)" class="st12 st21">100</text>
		<text transform="matrix(-1.7537 0.912 -0.912 -1.7537 513.5915 407.2846)" class="st12 st21">100</text>
		<text transform="matrix(-1.5497 1.227 -1.227 -1.5497 1128.4877 38.1625)" class="st12 st21">85</text>
		<text transform="matrix(0.2122 1.9653 -1.9653 0.2122 888.3729 -313.904)" class="st12 st21">100</text>
		<text transform="matrix(-1.8608 0.6669 -0.6669 -1.8608 559.276 320.6631)" class="st12 st21">100</text>
		<text transform="matrix(-0.9992 1.7056 -1.7056 -0.9992 1107.3412 -93.803)" class="st12 st21">99</text>
		<text transform="matrix(-0.1565 1.9705 -1.9705 -0.1565 982.7343 -313.903)" class="st12 st21">95</text>
		<text transform="matrix(-1.1251 1.6252 -1.6252 -1.1251 665.9305 586.643)" class="st12 st21">100</text>
		<text transform="matrix(-6.144527e-02 1.9757 -1.9757 -6.144527e-02 928.5178 648.0274)" class="st12 st21">100</text>
		<text transform="matrix(-1.3833 1.412 -1.412 -1.3833 1266.5577 -144.6343)" class="st12 st21">99</text>
		<text transform="matrix(-1.8182 -0.7754 0.7754 -1.8182 530.2778 4.376286e-02)" class="st12 st21">96</text>
		<text transform="matrix(-0.5197 1.9071 -1.9071 -0.5197 1072.525 -287.7368)" class="st12 st21">100</text>
		<text transform="matrix(-1.3795 1.4157 -1.4157 -1.3795 1086.5309 38.3631)" class="st12 st21">92</text>
		<text transform="matrix(-5.683153e-02 1.9759 -1.9759 -5.683153e-02 931.3254 587.7098)" class="st12 st21">100</text>
		<text transform="matrix(-1.0883 -1.6501 1.6501 -1.0883 1195.3204 542.5615)" class="st12 st21">90</text>
		<text transform="matrix(-1.4726 1.3186 -1.3186 -1.4726 1276.4709 -113.2751)" class="st12 st21">96</text>
		<text transform="matrix(-1.9388 -0.3852 0.3852 -1.9388 1243.7694 238.4135)" class="st12 st21">100</text>
		<text transform="matrix(-1.1781 -1.5872 1.5872 -1.1781 1099.343 373.3326)" class="st12 st21">100</text>
		<text transform="matrix(-0.898 1.7609 -1.7609 -0.898 1174.2234 -266.5058)" class="st12 st21">100</text>
		<text transform="matrix(-1.8162 0.7801 -0.7801 -1.8162 1331.1144 16.8155)" class="st12 st21">100</text>
		<text transform="matrix(0.3219 1.9503 -1.9503 0.3219 862.7338 -294.6682)" class="st12 st21">100</text>
		<text transform="matrix(-1.9381 0.3886 -0.3886 -1.9381 1414.8385 87.5306)" class="st12 st21">87</text>
		<text transform="matrix(-1.9328 0.414 -0.414 -1.9328 530.5841 270.5802)" class="st12 st21">100</text>
		<text transform="matrix(-1.503 1.2839 -1.2839 -1.503 1308.7092 -127.1914)" class="st12 st21">100</text>
		<text transform="matrix(-1.6058 -1.1527 1.1527 -1.6058 584.1088 -85.4193)" class="st12 st21">100</text>
		<text transform="matrix(-1.5071 1.279 -1.279 -1.5071 607.5045 469.9258)" class="st12 st21">100</text>
		<text transform="matrix(-1.2094 1.5635 -1.5635 -1.2094 1236.5773 -193.3649)" class="st12 st21">100</text>
		<text transform="matrix(-1.7508 0.9176 -0.9176 -1.7508 1396.9353 -53.9305)" class="st12 st21">100</text>
		<text transform="matrix(-1.8806 -0.6088 0.6088 -1.8806 759.1472 117.7605)" class="st12 st21">84</text>
		<text transform="matrix(-1.7595 -0.9008 0.9008 -1.7595 517.6993 -42.755)" class="st12 st21">99</text>
		<text transform="matrix(0.843 1.7879 -1.7879 0.843 1152.2648 635.8284)" class="st12 st21">100</text>
		<text transform="matrix(-1.0431 -1.679 1.679 -1.0431 717.1508 -205.0866)" class="st12 st21">100</text>
		<text transform="matrix(-0.172 1.9692 -1.9692 -0.172 902.871 646.0065)" class="st12 st21">100</text>
		<text transform="matrix(-1.2775 1.5084 -1.5084 -1.2775 1231.8104 -154.9999)" class="st12 st21">96</text>
		<text transform="matrix(-1.6573 1.0773 -1.0773 -1.6573 1167.1393 38.8243)" class="st12 st21">92</text>
		<text transform="matrix(-1.5939 -1.169 1.169 -1.5939 1315.0077 444.8374)" class="st12 st21">95</text>
		<text transform="matrix(-1.3771 -1.4181 1.4181 -1.3771 722.5714 -59.3491)" class="st12 st21">100</text>
		<text transform="matrix(-1.4162 -1.3789 1.3789 -1.4162 629.1479 -137.0885)" class="st12 st21">100</text>
		<text transform="matrix(-1.9111 0.5049 -0.5049 -1.9111 593.2773 274.9696)" class="st12 st21">100</text>
		<text transform="matrix(-1.9434 0.3614 -0.3614 -1.9434 1448.8824 87.9533)" class="st12 st21">100</text>
		<text transform="matrix(-0.2666 1.9586 -1.9586 -0.2666 1009.259 -299.412)" class="st12 st21">100</text>
		<text transform="matrix(-1.9618 -0.2423 0.2423 -1.9618 509.2961 125.8443)" class="st12 st21">96</text>
		<text transform="matrix(-1.847 -0.7042 0.7042 -1.847 1428.9843 361.9004)" class="st12 st21">100</text>
		<text transform="matrix(0.2809 1.9566 -1.9566 0.2809 879.3593 -251.5947)" class="st12 st21">100</text>
		<text transform="matrix(-1.8124 0.789 -0.789 -1.8124 718.361 281.3452)" class="st12 st21">96</text>
		<text transform="matrix(-1.3094 -1.4808 1.4808 -1.3094 632.423 -185.1527)" class="st12 st21">91</text>
		<text transform="matrix(-1.7333 0.9502 -0.9502 -1.7333 1312.863 -18.6569)" class="st12 st21">100</text>
		<text transform="matrix(0.8721 1.7739 -1.7739 0.8721 1120.8997 553.9072)" class="st12 st21">84</text>
		<text transform="matrix(-0.1996 1.9666 -1.9666 -0.1996 893.4284 675.3181)" class="st12 st21">100</text>
		<text transform="matrix(-0.6432 1.8691 -1.8691 -0.6432 1033.6788 -76.0893)" class="st12 st21">87</text>
		<text transform="matrix(-1.4231 -1.3719 1.3719 -1.4231 1257.9958 472.307)" class="st12 st21">100</text>
		<text transform="matrix(-0.7298 1.837 -1.837 -0.7298 1130.7206 -285.2674)" class="st12 st21">100</text>
		<text transform="matrix(-1.1022 1.6408 -1.6408 -1.1022 688.3543 565.5394)" class="st12 st21">100</text>
		<text transform="matrix(-0.5702 1.8926 -1.8926 -0.5702 815.1114 611.9698)" class="st12 st21">100</text>
		<text transform="matrix(0.9312 1.7436 -1.7436 0.9312 733.2956 -200.481)" class="st12 st21">100</text>
		<text transform="matrix(-1.9757 6.170958e-02 -6.170958e-02 -1.9757 462.5152 195.8392)" class="st12 st21">100</text>
		<text transform="matrix(0.4216 1.9312 -1.9312 0.4216 841.2044 -274.7077)" class="st12 st21">100</text>
		<text transform="matrix(-1.772 -0.876 0.876 -1.772 544.2658 -21.9268)" class="st12 st21">100</text>
		<text transform="matrix(-1.9209 -0.4664 0.4664 -1.9209 1226.7828 247.0791)" class="st12 st21">100</text>
		<text transform="matrix(-0.7357 1.8347 -1.8347 -0.7357 761.3564 640.2437)" class="st12 st21">100</text>
		<text transform="matrix(-1.9098 0.5099 -0.5099 -1.9098 1352.0647 73.3563)" class="st12 st21">100</text>
		<text transform="matrix(-1.8008 -0.815 0.815 -1.8008 1387.3801 376.843)" class="st12 st21">99</text>
		<text transform="matrix(-1.1543 -1.6046 1.6046 -1.1543 708.6265 -163.7903)" class="st12 st21">100</text>
		<text transform="matrix(-1.726 -0.9633 0.9633 -1.726 1185.5337 309.742)" class="st12 st21">92</text>
		<text transform="matrix(0.5052 1.911 -1.911 0.5052 1053.4495 609.3014)" class="st12 st21">99</text>
		<text transform="matrix(0.7757 1.8181 -1.8181 0.7757 1135.4608 643.0079)" class="st12 st21">100</text>
		<text transform="matrix(-1.4029 1.3925 -1.3925 -1.4029 1305.505 -174.2258)" class="st12 st21">100</text>
		<text transform="matrix(-1.4882 -1.3009 1.3009 -1.4882 748.4886 -5.692689e-02)" class="st12 st21">100</text>
		<text transform="matrix(-0.3759 1.9406 -1.9406 -0.3759 1033.108 -277.6307)" class="st12 st21">80</text>
		<text transform="matrix(-0.6775 1.8569 -1.8569 -0.6775 806.708 560.9153)" class="st12 st21">100</text>
		<text transform="matrix(-1.874 -0.6288 0.6288 -1.874 490.8155 25.422)" class="st12 st21">100</text>
		<text transform="matrix(0.9337 1.7422 -1.7422 0.9337 1160.6581 598.3285)" class="st12 st21">100</text>
		<text transform="matrix(0.8487 1.7852 -1.7852 0.8487 725.8084 -264.8022)" class="st12 st21">100</text>
		<text transform="matrix(-0.7099 1.8448 -1.8448 -0.7099 778.5331 614.6841)" class="st12 st21">100</text>
		<text transform="matrix(-0.5169 1.9079 -1.9079 -0.5169 846.7463 542.7659)" class="st12 st21">100</text>
		<text transform="matrix(-1.0298 -1.6872 1.6872 -1.0298 1206.413 589.5417)" class="st12 st21">99</text>
		<text transform="matrix(0.8819 1.769 -1.769 0.8819 730.83 -233.4778)" class="st12 st21">100</text>
		<text transform="matrix(-1.2438 1.5363 -1.5363 -1.2438 1206.9972 -140.0096)" class="st12 st21">100</text>
		<text transform="matrix(-1.7627 0.8945 -0.8945 -1.7627 751.1117 281.2849)" class="st12 st21">95</text>
		<text transform="matrix(-1.3321 -1.4604 1.4604 -1.3321 1300.2708 558.3089)" class="st12 st21">100</text>
		<text transform="matrix(-1.9265 0.4428 -0.4428 -1.9265 1385.3173 80.6809)" class="st12 st21">100</text>
		<text transform="matrix(-0.8357 1.7913 -1.7913 -0.8357 1131.3046 -216.5421)" class="st12 st21">83</text>
		<text transform="matrix(-1.1501 1.6076 -1.6076 -1.1501 1239.6445 -228.2963)" class="st12 st21">100</text>
		<text transform="matrix(-1.8877 0.5865 -0.5865 -1.8877 626.1108 281.3077)" class="st12 st21">100</text>
		<text transform="matrix(-1.3227 1.4689 -1.4689 -1.3227 1284.5728 -193.4719)" class="st12 st21">100</text>
		<text transform="matrix(-1.8364 0.7312 -0.7312 -1.8364 687.5178 285.0882)" class="st12 st21">98</text>
		<text transform="matrix(-1.9582 -0.2698 0.2698 -1.9582 465.3637 113.4706)" class="st12 st21">79</text>
		<text transform="matrix(-1.1478 1.6093 -1.6093 -1.1478 765.6006 435.0857)" class="st12 st21">100</text>
		<text transform="matrix(-1.1864 1.581 -1.581 -1.1864 1129.4543 -62.2194)" class="st12 st21">92</text>
		<text transform="matrix(-1.6945 -1.0178 1.0178 -1.6945 627.6086 -15.6158)" class="st12 st21">100</text>
		<text transform="matrix(-1.177 -1.5881 1.5881 -1.177 845.6774 31.3537)" class="st12 st21">99</text>
		<text transform="matrix(-1.8567 -0.6783 0.6783 -1.8567 1218.6226 277.4804)" class="st12 st21">100</text>
		<text transform="matrix(-1.8611 0.6661 -0.6661 -1.8611 658.7322 284.876)" class="st12 st21">100</text>
		<text transform="matrix(-1.8596 -0.6702 0.6702 -1.8596 576.9523 44.9278)" class="st12 st21">99</text>
		<text transform="matrix(-1.3524 -1.4416 1.4416 -1.3524 1284.7446 531.3656)" class="st12 st21">100</text>
		<text transform="matrix(-1.8927 0.5699 -0.5699 -1.8927 1319.2883 69.5027)" class="st12 st21">100</text>
		<text transform="matrix(0.9148 1.7522 -1.7522 0.9148 708.9972 -256.0449)" class="st12 st21">100</text>
		<text transform="matrix(-1.9467 -0.3427 0.3427 -1.9467 471.5201 95.88)" class="st12 st21">100</text>
		<text transform="matrix(0.3276 1.9493 -1.9493 0.3276 879.3375 -187.1964)" class="st12 st21">92</text>
		<text transform="matrix(-0.3396 1.9473 -1.9473 -0.3396 1030.077 -311.7965)" class="st12 st21">100</text>
		<text transform="matrix(0.4829 1.9168 -1.9168 0.4829 856.7415 -150.8922)" class="st12 st21">97</text>
		<text transform="matrix(-1.9747 8.938373e-02 -8.938373e-02 -1.9747 492.8136 201.3285)" class="st12 st21">100</text>
		<text transform="matrix(-1.4287 1.366 -1.366 -1.4287 1190.0131 -50.6855)" class="st12 st21">89</text>
		<text transform="matrix(8.276343e-02 1.9749 -1.9749 8.276343e-02 957.0729 530.8368)" class="st12 st21">99</text>
		<text transform="matrix(-1.8341 -0.737 0.737 -1.8341 554.4146 20.2014)" class="st12 st21">97</text>
		<text transform="matrix(0.7131 1.8436 -1.8436 0.7131 760.3593 -280.3992)" class="st12 st21">100</text>
		<text transform="matrix(-1.5267 1.2556 -1.2556 -1.5267 1337.8907 -139.6476)" class="st12 st21">100</text>
		<text transform="matrix(-0.6797 1.8562 -1.8562 -0.6797 795.8884 589.1015)" class="st12 st21">100</text>
		<text transform="matrix(-1.5387 -1.2408 1.2408 -1.5387 647.1 -67.6672)" class="st12 st21">100</text>
		<text transform="matrix(-1.3824 -1.4128 1.4128 -1.3824 1270.7336 502.7087)" class="st12 st21">100</text>
		<text transform="matrix(-1.0348 1.6842 -1.6842 -1.0348 1193.8796 -221.6967)" class="st12 st21">100</text>
		<text transform="matrix(-1.33 -1.4623 1.4623 -1.33 647.5197 -158.3039)" class="st12 st21">97</text>
		<text transform="matrix(-1.6678 -1.061 1.061 -1.6678 556.5399 -72.5006)" class="st12 st21">100</text>
		<text transform="matrix(-1.6374 -1.1073 1.1073 -1.6374 599.0614 -59.7884)" class="st12 st21">99</text>
		<text transform="matrix(-1.2007 -1.5702 1.5702 -1.2007 716.7579 -132.5548)" class="st12 st21">100</text>
		<text transform="matrix(0.7512 1.8284 -1.8284 0.7512 1020.3391 380.0778)" class="st12 st21">100</text>
		<text transform="matrix(0.1444 1.9714 -1.9714 0.1444 965.304 497.3711)" class="st12 st21">100</text>
		<text transform="matrix(-1.8907 0.5765 -0.5765 -1.8907 1405.522 41.7932)" class="st12 st21">100</text>
		<text transform="matrix(-0.6627 1.8623 -1.8623 -0.6627 990.8792 52.8024)" class="st12 st21">88</text>
		<text transform="matrix(-0.4543 1.9238 -1.9238 -0.4543 830.5851 663.5675)" class="st12 st21">100</text>
		<text transform="matrix(-1.4913 -1.2975 1.2975 -1.4913 645.5275 -88.7797)" class="st12 st21">100</text>
	</g>
	<g id="branchlengthHolder">
	</g>
	<g id="branchIDHolder">
	</g>
	<g id="datasetHolder">
		<g>
			<path class="st3" d="M653.4-271.3l-7.4-11.4c-41.2,26.7-78.8,58.7-111.7,95.1l10.1,9.1C576.5-214.1,613.2-245.3,653.4-271.3"/>
			<path class="st3" d="M1314.1,602l9,10.2c18.4-16.2,35.8-33.6,51.9-52l-10.2-9C1349,569.2,1332.1,586.2,1314.1,602"/>
			<path class="st3" d="M725.3-310.6l-5.6-12.4c-19.2,8.7-37.8,18.4-55.9,29.2l7,11.7C688.4-292.6,706.6-302.1,725.3-310.6"/>
			<path class="st3" d="M409.9,278.1l-13.4,2.2c6.2,38.1,16.3,75.4,30.2,111.4l12.7-4.9C425.9,351.6,416,315.2,409.9,278.1"/>
			<path class="st3" d="M490.4,487.2l-11.4,7.4c28.5,44.2,63.1,84.2,102.8,118.8l8.9-10.2C552,569.4,518.3,530.3,490.4,487.2"/>
			<path class="st3" d="M1076.2-345.2l3.1-13.2c-23.9-5.6-48.1-9.6-72.5-12l-1.3,13.5C1029.3-354.5,1052.9-350.6,1076.2-345.2"/>
			<path class="st3" d="M1106-337.4l3.8-13c-6.7-2-13.5-3.8-20.3-5.5l-3.3,13.2C1092.8-341.1,1099.4-339.3,1106-337.4"/>
			<text transform="matrix(1.9161 0.4856 -0.4856 1.9161 1087.9248 -347.8012)" class="st12 st22">D</text>
			<text transform="matrix(1.913 0.4978 -0.4978 1.913 1091.3405 -346.9252)" class="st12 st22">e</text>
			<text transform="matrix(1.9105 0.5071 -0.5071 1.9105 1093.9689 -346.2342)" class="st12 st22">l</text>
			<text transform="matrix(1.9095 0.5109 -0.5109 1.9095 1095.0128 -345.9551)" class="st12 st22">p</text>
			<text transform="matrix(1.907 0.5202 -0.5202 1.907 1097.6309 -345.249)" class="st12 st22">h</text>
			<text transform="matrix(1.9044 0.5295 -0.5295 1.9044 1100.2491 -344.5276)" class="st12 st22">i</text>
			<text transform="matrix(1.9034 0.5333 -0.5333 1.9034 1101.2935 -344.2359)" class="st12 st22">l</text>
			<text transform="matrix(1.9023 0.537 -0.537 1.9023 1102.3398 -343.9414)" class="st12 st22">l</text>
			<text transform="matrix(1.9013 0.5407 -0.5407 1.9013 1103.3784 -343.6478)" class="st12 st22">i</text>
			<text transform="matrix(1.9002 0.5444 -0.5444 1.9002 1104.4191 -343.3503)" class="st12 st22">n</text>
			<text transform="matrix(1.9536 0.3014 -0.3014 1.9536 1036.2594 -358.3094)" class="st12 st22">D</text>
			<text transform="matrix(1.9516 0.3138 -0.3138 1.9516 1039.7329 -357.7626)" class="st12 st22">I</text>
			<text transform="matrix(1.9508 0.3185 -0.3185 1.9508 1041.0756 -357.5451)" class="st12 st22">A</text>
			<text transform="matrix(1.9489 0.33 -0.33 1.9489 1044.2872 -357.0102)" class="st12 st22">P</text>
			<text transform="matrix(-1.3228 -1.4688 1.4688 -1.3228 539.8397 560.4832)" class="st12 st22">F</text>
			<text transform="matrix(-1.3149 -1.4759 1.4759 -1.3149 537.8524 558.2624)" class="st12 st22">M</text>
			<text transform="matrix(-1.304 -1.4855 1.4855 -1.304 535.1549 555.2135)" class="st12 st22">N</text>
			<text transform="matrix(-1.2945 -1.4938 1.4938 -1.2945 532.8393 552.5574)" class="st12 st22">/</text>
			<text transform="matrix(-1.2909 -1.497 1.497 -1.2909 531.9512 551.5326)" class="st12 st22">C</text>
			<text transform="matrix(-1.2813 -1.5051 1.5051 -1.2813 529.6591 548.8553)" class="st12 st22">P</text>
			<text transform="matrix(-1.2725 -1.5126 1.5126 -1.2725 527.5571 546.3732)" class="st12 st22">U</text>
			<text transform="matrix(-0.541 -1.9012 1.9012 -0.541 418.5887 341.2322)" class="st12 st22">F</text>
			<text transform="matrix(-0.5307 -1.9041 1.9041 -0.5307 417.7831 338.3591)" class="st12 st22">H</text>
			<text transform="matrix(-0.5186 -1.9074 1.9074 -0.5186 416.8511 334.9651)" class="st12 st22">O</text>
			<text transform="matrix(-0.5055 -1.9109 1.9109 -0.5055 415.8607 331.2991)" class="st12 st22">D</text>
			<text transform="matrix(1.7405 -0.937 0.937 1.7405 688.9748 -298.5474)" class="st12 st22">D</text>
			<text transform="matrix(1.7464 -0.926 0.926 1.7464 692.079 -300.2112)" class="st12 st22">A</text>
			<text transform="matrix(1.7518 -0.9157 0.9157 1.7518 694.9521 -301.728)" class="st12 st22">A</text>
			<text transform="matrix(1.7571 -0.9054 0.9054 1.7571 697.8442 -303.2264)" class="st12 st22">M</text>
			<text transform="matrix(-1.3866 1.4087 -1.4087 -1.3866 1346.7957 578.3932)" class="st12 st22">I</text>
			<text transform="matrix(-1.3901 1.4053 -1.4053 -1.3901 1345.8384 579.3541)" class="st12 st22">N</text>
			<text transform="matrix(-1.399 1.3964 -1.3964 -1.399 1343.3555 581.8566)" class="st12 st22">F</text>
			<text transform="matrix(1.4896 -1.2994 1.2994 1.4896 587.3574 -228.1887)" class="st12 st22">F</text>
			<text transform="matrix(1.4965 -1.2914 1.2914 1.4965 589.608 -230.1408)" class="st12 st22">M</text>
			<text transform="matrix(1.506 -1.2804 1.2804 1.506 592.6925 -232.7864)" class="st12 st22">N</text>
			<text transform="matrix(1.5141 -1.2708 1.2708 1.5141 595.3843 -235.0618)" class="st12 st22">L</text>
		</g>
		<g>
			<path class="st4" d="M1364.8,551.2l10.2,9c4.6-5.3,9.1-10.6,13.5-16.1l-10.6-8.6C1373.7,540.8,1369.3,546.1,1364.8,551.2"/>
			<path class="st4" d="M590.7,603.1l-8.9,10.2c5.3,4.6,10.6,9.1,16.1,13.5l8.5-10.6C601.1,612,595.9,607.6,590.7,603.1"/>
			<path class="st4" d="M402.8,196.4l-13.6,0.2c0.1,7,0.3,14,0.7,21l13.6-0.7C403.1,210.1,402.9,203.3,402.8,196.4"/>
			<path class="st5" d="M439.4,386.8l-12.7,4.9c2.5,6.5,5.2,13,7.9,19.5l12.5-5.4C444.4,399.5,441.9,393.1,439.4,386.8"/>
			<path class="st4" d="M985-358.5l0.8-13.6c-3.5-0.2-7-0.4-10.5-0.5l-0.6,13.6C978.2-358.8,981.6-358.7,985-358.5"/>
			<path class="st5" d="M403.4,216.9l-13.6,0.7c0.2,3.5,0.4,7,0.6,10.5l13.6-0.9C403.8,223.7,403.6,220.3,403.4,216.9"/>
			<path class="st5" d="M1086.2-342.7l3.3-13.2c-3.4-0.9-6.8-1.7-10.2-2.5l-3.1,13.2C1079.5-344.4,1082.9-343.6,1086.2-342.7"/>
			<path class="st4" d="M544.4-178.5l-10.1-9.1c-4.7,5.2-9.3,10.5-13.8,15.9l10.4,8.7C535.3-168.3,539.8-173.4,544.4-178.5"/>
			<path class="st5" d="M974.7-359l0.6-13.6c-3.5-0.1-7-0.3-10.5-0.3l-0.3,13.6C967.9-359.2,971.3-359.1,974.7-359"/>
			<path class="st4" d="M1019.1,734.4l1.7,13.5c7-0.9,13.9-1.8,20.8-3l-2.2-13.4C1032.7,732.6,1025.9,733.5,1019.1,734.4"/>
			<path class="st4" d="M670.8-282.1l-7-11.7c-6,3.6-12,7.3-17.9,11.1l7.4,11.4C659.1-275,664.9-278.6,670.8-282.1"/>
			<path class="st4" d="M530.9-163l-10.4-8.7c-4.5,5.4-8.9,10.8-13.2,16.4l10.7,8.3C522.2-152.5,526.5-157.8,530.9-163"/>
			<path class="st4" d="M995.2-357.7l1.1-13.5c-3.5-0.3-7-0.5-10.5-0.7l-0.8,13.6C988.4-358.2,991.8-358,995.2-357.7"/>
		</g>
		<g>
			<path class="st10" d="M1499.6,225.4l13.6,0.9c0.2-3.5,0.4-7,0.6-10.5l-13.6-0.6C1500,218.6,1499.8,222,1499.6,225.4"/>
			<path class="st11" d="M1496.7,256l13.5,1.6c0.4-3.5,0.8-7,1.2-10.4l-13.5-1.4C1497.5,249.2,1497.1,252.6,1496.7,256"/>
			<path class="st10" d="M407,257.8l-13.5,1.7c0.4,3.5,0.9,6.9,1.4,10.4l13.4-1.9C407.9,264.6,407.4,261.2,407,257.8"/>
			<path class="st10" d="M451.3,415.2l-12.4,5.6c2.9,6.4,5.9,12.7,9,19l12.2-6C457,427.6,454.1,421.4,451.3,415.2"/>
			<path class="st6" d="M460,433.7l-12.2,6c1.6,3.1,3.1,6.3,4.8,9.4l12.1-6.3C463.1,439.8,461.6,436.8,460,433.7"/>
			<path class="st10" d="M447.1,405.8l-12.5,5.4c1.4,3.2,2.8,6.4,4.2,9.6l12.4-5.6C449.9,412,448.5,408.9,447.1,405.8"/>
			<path class="st9" d="M485,478.5l-11.6,7.2c1.8,3,3.7,5.9,5.6,8.9l11.4-7.4C488.6,484.3,486.8,481.4,485,478.5"/>
			<path class="st10" d="M1497.8,245.8l13.5,1.4c0.4-3.5,0.7-7,1-10.5l-13.5-1.1C1498.5,239,1498.2,242.4,1497.8,245.8"/>
			<path class="st10" d="M419.7,54.2l-13.2-3.3c-1.7,6.8-3.3,13.6-4.8,20.5l13.3,2.9C416.4,67.5,418,60.9,419.7,54.2"/>
			<path class="st11" d="M1492.1,286.4l13.4,2.4c0.6-3.4,1.2-6.9,1.8-10.4l-13.4-2.1C1493.3,279.7,1492.7,283.1,1492.1,286.4"/>
			<path class="st10" d="M682.7,668.1l-6.7,11.8c3.1,1.7,6.1,3.4,9.2,5.1l6.4-12C688.7,671.4,685.7,669.8,682.7,668.1"/>
			<path class="st10" d="M1495.4,266.2l13.5,1.9c0.5-3.5,0.9-6.9,1.4-10.4l-13.5-1.6C1496.3,259.4,1495.8,262.8,1495.4,266.2"/>
			<path class="st10" d="M1488.1,306.6l13.3,2.9c1.5-6.8,2.9-13.7,4.1-20.6l-13.4-2.4C1490.9,293.2,1489.6,299.9,1488.1,306.6"/>
			<path class="st8" d="M606.4,616.3l-8.5,10.6c16.3,13.2,33.4,25.5,51.1,36.8l7.3-11.5C639,641.2,622.4,629.2,606.4,616.3"/>
			<path class="st11" d="M1500.1,215.2l13.6,0.6c0.2-3.5,0.3-7,0.4-10.5l-13.6-0.4C1500.4,208.3,1500.3,211.7,1500.1,215.2"/>
			<path class="st9" d="M1408.4,494.3l11.3,7.5c1.9-2.9,3.9-5.8,5.8-8.8l-11.4-7.3C1412.2,488.6,1410.3,491.4,1408.4,494.3"/>
			<path class="st8" d="M1396.7,511.1l11,8c2.1-2.8,4.1-5.7,6.1-8.6l-11.2-7.8C1400.7,505.5,1398.7,508.3,1396.7,511.1"/>
			<path class="st6" d="M1039.4,731.5l2.2,13.4c3.5-0.6,6.9-1.2,10.4-1.8l-2.4-13.4C1046.2,730.4,1042.8,730.9,1039.4,731.5"/>
			<path class="st10" d="M1444.2,432.1l12.2,6c6.2-12.6,11.9-25.4,17.1-38.4l-12.6-5.1C1455.9,407.4,1450.3,419.8,1444.2,432.1"/>
			<path class="st11" d="M1390.6,519.4l10.9,8.2c2.1-2.8,4.2-5.6,6.2-8.5l-11-8C1394.7,513.9,1392.7,516.6,1390.6,519.4"/>
			<path class="st10" d="M656.3,652.3l-7.3,11.5c8.9,5.7,17.9,11.1,27,16.2l6.7-11.8C673.8,663.1,665,657.8,656.3,652.3"/>
			<path class="st10" d="M408.4,267.9l-13.4,1.9c0.5,3.5,1,6.9,1.6,10.4l13.4-2.2C409.4,274.7,408.9,271.3,408.4,267.9"/>
			<path class="st6" d="M404,227.2l-13.6,0.9c0.2,3.5,0.5,7,0.8,10.5l13.5-1.2C404.5,234,404.3,230.6,404,227.2"/>
			<path class="st6" d="M415,74.2l-13.3-2.9c-0.7,3.4-1.4,6.9-2.1,10.3l13.3,2.6C413.6,80.9,414.3,77.6,415,74.2"/>
			<path class="st10" d="M1414,485.7l11.4,7.3c11.3-17.7,21.7-36,31-54.9l-12.2-6C1435.2,450.5,1425.1,468.4,1414,485.7"/>
			<path class="st6" d="M469.5,451.9l-11.9,6.5c1.7,3.1,3.4,6.1,5.1,9.2l11.8-6.7C472.8,457.9,471.1,454.9,469.5,451.9"/>
			<path class="st6" d="M404.8,237.4l-13.5,1.2c0.6,7,1.4,13.9,2.2,20.9l13.5-1.7C406.2,251,405.4,244.2,404.8,237.4"/>
			<path class="st6" d="M1471.7,365.8l12.9,4.4c3.4-10,6.5-20,9.3-30.1l-13.1-3.6C1478,346.3,1475,356.1,1471.7,365.8"/>
			<path class="st9" d="M454.1-42.2L441.7-48c-14.8,31.8-26.6,64.9-35.2,98.9l13.2,3.3C428.1,21.1,439.6-11.2,454.1-42.2"/>
			<path class="st7" d="M1059.6,727.8l2.7,13.3c58.5-11.7,114.8-32.7,166.7-62.1l-6.7-11.8C1171.6,695.9,1116.7,716.4,1059.6,727.8"
				/>
			<path class="st6" d="M1498.8,235.6l13.5,1.1c0.3-3.5,0.6-7,0.8-10.5l-13.6-0.9C1499.3,228.8,1499.1,232.2,1498.8,235.6"/>
			<path class="st9" d="M1402.6,502.7l11.2,7.8c2-2.9,4-5.8,5.9-8.7l-11.3-7.5C1406.5,497.1,1404.6,499.9,1402.6,502.7"/>
			<path class="st7" d="M691.7,673l-6.4,12c61.9,33.3,129.5,54.7,199.2,63.1l1.6-13.5C818,726.4,752.1,705.5,691.7,673"/>
			<path class="st6" d="M1500.5,204.9l13.6,0.4c0.1-3.5,0.2-7,0.2-10.5l-13.6-0.1C1500.7,198.1,1500.6,201.5,1500.5,204.9"/>
			<path class="st6" d="M1493.8,276.3l13.4,2.1c0.6-3.5,1.1-6.9,1.6-10.4l-13.5-1.9C1494.9,269.6,1494.4,273,1493.8,276.3"/>
			<path class="st10" d="M1378,535.5l10.6,8.6c4.4-5.4,8.7-11,12.9-16.6l-10.9-8.2C1386.5,524.8,1382.3,530.2,1378,535.5"/>
			<path class="st6" d="M412.9,84.3l-13.3-2.6c-7.4,37.9-10.9,76.4-10.4,114.9l13.6-0.2C402.3,158.8,405.7,121.2,412.9,84.3"/>
			<path class="st6" d="M1005.4-356.8l1.3-13.5c-3.5-0.3-7-0.7-10.5-0.9l-1.1,13.5C998.6-357.5,1002-357.2,1005.4-356.8"/>
			<path class="st10" d="M1500.7,194.7l13.6,0.1c0-3.5,0-7,0-10.5l-13.6,0.1C1500.7,187.8,1500.7,191.2,1500.7,194.7"/>
			<path class="st10" d="M1222.3,667.2l6.7,11.8c33.6-19,65.1-41.4,94.1-66.9l-9-10.2C1285.8,626.8,1255.1,648.7,1222.3,667.2"/>
			<path class="st9" d="M1480.7,336.4l13.1,3.6c2.8-10.1,5.3-20.3,7.6-30.6l-13.3-2.9C1485.9,316.6,1483.5,326.5,1480.7,336.4"/>
			<path class="st6" d="M474.5,460.9l-11.8,6.7c3.5,6.1,7,12.1,10.7,18.1l11.6-7.2C481.4,472.7,477.9,466.8,474.5,460.9"/>
		</g>
		<g>
			<path class="st0" d="M464.7,442.8l-12.1,6.3c1.6,3.1,3.3,6.2,4.9,9.3l11.9-6.5C467.9,448.9,466.3,445.9,464.7,442.8"/>
			<path class="st0" d="M1049.5,729.7l2.4,13.4c3.4-0.6,6.9-1.3,10.3-2l-2.7-13.3C1056.3,728.5,1052.9,729.1,1049.5,729.7"/>
			<path class="st2" d="M1461,394.7l12.6,5.1c3.9-9.7,7.6-19.6,11-29.6l-12.9-4.4C1468.4,375.5,1464.8,385.2,1461,394.7"/>
			<path class="st2" d="M998.7,736.5l1.2,13.5c7-0.6,13.9-1.3,20.9-2.2l-1.7-13.5C1012.3,735.2,1005.5,735.9,998.7,736.5"/>
			<path class="st0" d="M988.5,737.3l0.9,13.6c3.5-0.2,7-0.5,10.5-0.8l-1.2-13.5C995.3,736.8,991.9,737.1,988.5,737.3"/>
			<path class="st2" d="M886.1,734.6l-1.6,13.5c34.8,4.2,69.9,5.1,104.9,2.8l-0.9-13.6C954.4,739.6,920.1,738.7,886.1,734.6"/>
			<path class="st2" d="M483.1-96.4l-11.6-7.1c-11,17.9-20.9,36.5-29.8,55.6l12.3,5.7C462.7-60.8,472.4-78.9,483.1-96.4"/>
			<path class="st0" d="M494.1-113.7l-11.3-7.5c-3.9,5.8-7.6,11.8-11.3,17.7l11.6,7.1C486.7-102.3,490.3-108,494.1-113.7"/>
			<path class="st1" d="M499.9-122.2l-11.2-7.7c-2,2.9-4,5.8-5.9,8.7l11.3,7.5C496-116.6,497.9-119.4,499.9-122.2"/>
			<path class="st0" d="M505.8-130.6l-11-7.9c-2,2.8-4.1,5.7-6,8.6l11.2,7.7C501.8-125,503.8-127.8,505.8-130.6"/>
			<path class="st0" d="M518-147.1l-10.7-8.3c-4.3,5.5-8.5,11.2-12.6,16.8l11,7.9C509.8-136.2,513.8-141.7,518-147.1"/>
			<path class="st0" d="M792.5-335.8l-3.9-13c-10.1,3-20,6.4-29.9,10l4.7,12.8C772.9-329.6,782.7-332.9,792.5-335.8"/>
			<path class="st2" d="M763.3-326.1l-4.7-12.8c-13.2,4.8-26.1,10.1-38.9,15.9l5.6,12.4C737.8-316.2,750.4-321.4,763.3-326.1"/>
			<path class="st2" d="M964.5-359.3l0.3-13.6c-59.7-1.4-119.2,6.7-176.3,24l3.9,13C848.2-352.7,906.3-360.7,964.5-359.3"/>
			<path class="st0" d="M1135.2-327.9l4.5-12.8c-9.9-3.5-19.9-6.7-30-9.7l-3.8,13C1115.8-334.5,1125.6-331.3,1135.2-327.9"/>
			<path class="st2" d="M1163.9-316.8l5.3-12.5c-9.7-4.1-19.5-7.9-29.4-11.4l-4.5,12.8C1144.9-324.5,1154.5-320.8,1163.9-316.8"/>
			<path class="st2" d="M1210.2-294.8l6.4-12c-15.5-8.2-31.3-15.8-47.4-22.5l-5.3,12.5C1179.7-310.2,1195.2-302.9,1210.2-294.8"/>
			<path class="st0" d="M1493.3,99.3l13.4-2.2c-13.9-83.3-46.3-162.4-94.9-231.4l-11.1,7.8C1448.1-59.2,1479.7,18,1493.3,99.3"/>
			<path class="st0" d="M1400.6-126.6l11.1-7.8c-6.1-8.6-12.3-17-18.9-25.3l-10.7,8.4C1388.6-143.2,1394.7-134.9,1400.6-126.6"/>
			<path class="st0" d="M1348.5-189.9l9.8-9.4c-7.3-7.6-14.7-15-22.4-22.2l-9.3,9.9C1334.2-204.5,1341.5-197.3,1348.5-189.9"/>
			<path class="st2" d="M1382.2-151.2l10.7-8.4c-10.9-13.7-22.4-27-34.5-39.6l-9.8,9.4C1360.4-177.5,1371.6-164.6,1382.2-151.2"/>
			<path class="st2" d="M1254.3-268.6l7.5-11.3c-14.6-9.7-29.7-18.6-45.1-26.9l-6.4,12C1225.3-286.8,1240-278,1254.3-268.6"/>
			<path class="st1" d="M1326.7-211.5l9.3-9.9c-23-21.5-47.9-41.1-74.2-58.5l-7.5,11.3C1280-251.6,1304.2-232.5,1326.7-211.5"/>
		</g>
	</g>
</g>
<g id="legendHolder_00000129911327619814859970000012499737220106278028_">
</g>
<text transform="matrix(0.9297 -0.3684 0.3684 0.9297 428.8846 320.0048)" class="st23 st24">BNI-clade</text>
</svg>
